<svg width="201" height="14" viewBox="0 0 201 14" fill="none" xmlns="http://www.w3.org/2000/svg">
<path d="M20.315 8.16C20.2583 9.23667 19.8673 10.1377 19.142 10.863C18.4167 11.5883 17.3457 12.1323 15.929 12.495C14.5237 12.8577 12.7443 13.039 10.591 13.039C8.94767 13.039 7.47433 12.9483 6.171 12.767C4.86767 12.597 3.757 12.3023 2.839 11.883C1.921 11.4523 1.21833 10.8687 0.731 10.132C0.243667 9.39533 0 8.466 0 7.344C0 6.222 0.243667 5.287 0.731 4.539C1.21833 3.77967 1.921 3.179 2.839 2.737C3.757 2.28367 4.86767 1.96067 6.171 1.768C7.47433 1.57533 8.94767 1.479 10.591 1.479C12.7443 1.479 14.5293 1.67733 15.946 2.074C17.3627 2.45933 18.4337 3.03167 19.159 3.791C19.8843 4.55033 20.2753 5.474 20.332 6.562H15.912C15.776 6.19933 15.5267 5.882 15.164 5.61C14.8013 5.32667 14.2573 5.10567 13.532 4.947C12.8067 4.78833 11.8263 4.709 10.591 4.709C9.14033 4.709 7.96167 4.79967 7.055 4.981C6.14833 5.151 5.48533 5.42867 5.066 5.814C4.64667 6.19933 4.437 6.70933 4.437 7.344C4.437 7.922 4.64667 8.39233 5.066 8.755C5.48533 9.11767 6.14833 9.384 7.055 9.554C7.96167 9.724 9.14033 9.809 10.591 9.809C11.8263 9.809 12.801 9.73533 13.515 9.588C14.2403 9.44067 14.7843 9.24233 15.147 8.993C15.5097 8.73233 15.759 8.45467 15.895 8.16H20.315Z" fill="white"/>
<path d="M28.2949 12.937C27.0709 12.937 25.9829 12.767 25.0309 12.427C24.0789 12.0757 23.3252 11.5713 22.7699 10.914C22.2259 10.2567 21.9539 9.46333 21.9539 8.534C21.9539 7.55933 22.2259 6.74333 22.7699 6.086C23.3252 5.42867 24.0789 4.93567 25.0309 4.607C25.9829 4.27833 27.0709 4.114 28.2949 4.114C29.6549 4.114 30.8279 4.301 31.8139 4.675C32.8112 5.03767 33.5762 5.55333 34.1089 6.222C34.6529 6.87933 34.9249 7.65 34.9249 8.534C34.9249 9.19133 34.7719 9.792 34.4659 10.336C34.1599 10.8687 33.7179 11.3333 33.1399 11.73C32.5619 12.1153 31.8649 12.4157 31.0489 12.631C30.2329 12.835 29.3149 12.937 28.2949 12.937ZM29.8249 10.353C30.6862 10.353 31.4739 10.302 32.1879 10.2C32.9132 10.0867 33.4912 9.89967 33.9219 9.639C34.3639 9.37833 34.5849 9.01 34.5849 8.534C34.5849 8.04667 34.3639 7.67267 33.9219 7.412C33.4912 7.15133 32.9132 6.97 32.1879 6.868C31.4739 6.766 30.6862 6.715 29.8249 6.715C28.6689 6.715 27.7736 6.868 27.1389 7.174C26.5042 7.46867 26.1869 7.922 26.1869 8.534C26.1869 8.93067 26.3286 9.265 26.6119 9.537C26.8952 9.809 27.3089 10.013 27.8529 10.149C28.3969 10.285 29.0542 10.353 29.8249 10.353ZM34.5849 4.369H38.6649V12.699H34.8229C34.8229 12.699 34.8002 12.5687 34.7549 12.308C34.7209 12.0473 34.6812 11.6733 34.6359 11.186C34.6019 10.6987 34.5849 10.1263 34.5849 9.469V4.369Z" fill="white"/>
<path d="M40.203 4.369H44.283V12.699H40.203V4.369ZM48.669 7.514C47.9323 7.514 47.258 7.582 46.646 7.718C46.034 7.854 45.5127 8.01833 45.082 8.211C44.6513 8.39233 44.3283 8.57367 44.113 8.755L44.079 7.939C44.113 7.701 44.2037 7.42333 44.351 7.106C44.4983 6.77733 44.6967 6.443 44.946 6.103C45.1953 5.75167 45.5013 5.42867 45.864 5.134C46.2267 4.828 46.6403 4.58433 47.105 4.403C47.581 4.21033 48.1023 4.114 48.669 4.114V7.514Z" fill="white"/>
<path d="M57.6871 12.954C55.8851 12.954 54.3834 12.8067 53.1821 12.512C51.9921 12.2173 51.0968 11.747 50.4961 11.101C49.9068 10.455 49.6121 9.605 49.6121 8.551C49.6121 7.497 49.9068 6.647 50.4961 6.001C51.0968 5.34367 51.9921 4.86767 53.1821 4.573C54.3834 4.267 55.8851 4.114 57.6871 4.114C59.4778 4.114 60.9624 4.267 62.1411 4.573C63.3311 4.86767 64.2208 5.34367 64.8101 6.001C65.3994 6.647 65.6941 7.497 65.6941 8.551C65.6941 9.605 65.3994 10.455 64.8101 11.101C64.2208 11.747 63.3311 12.2173 62.1411 12.512C60.9624 12.8067 59.4778 12.954 57.6871 12.954ZM57.6871 10.489C58.5258 10.489 59.2284 10.421 59.7951 10.285C60.3618 10.1377 60.7924 9.92233 61.0871 9.639C61.3818 9.34433 61.5291 8.98167 61.5291 8.551C61.5291 8.12033 61.3818 7.75767 61.0871 7.463C60.8038 7.16833 60.3788 6.94733 59.8121 6.8C59.2454 6.65267 58.5371 6.579 57.6871 6.579C56.8484 6.579 56.1344 6.65267 55.5451 6.8C54.9671 6.94733 54.5251 7.16833 54.2191 7.463C53.9244 7.74633 53.7771 8.109 53.7771 8.551C53.7771 8.98167 53.9244 9.34433 54.2191 9.639C54.5138 9.92233 54.9501 10.1377 55.5281 10.285C56.1174 10.421 56.8371 10.489 57.6871 10.489Z" fill="white"/>
<path d="M67.3027 0.969H71.3827V12.699H67.3027V0.969Z" fill="white"/>
<path d="M77.6617 0V2.55H73.3437V0H77.6617ZM73.4627 4.369H77.5427V12.699H73.4627V4.369Z" fill="white"/>
<path d="M79.3661 4.369H83.4461V12.699H79.3661V4.369ZM89.5661 4.114C90.2348 4.114 90.8808 4.18767 91.5041 4.335C92.1274 4.471 92.6828 4.709 93.1701 5.049C93.6688 5.389 94.0654 5.85367 94.3601 6.443C94.6548 7.03233 94.8021 7.77467 94.8021 8.67V12.699H90.7221V9.18C90.7221 8.33 90.5011 7.72933 90.0591 7.378C89.6171 7.01533 88.8181 6.834 87.6621 6.834C87.0501 6.834 86.4551 6.902 85.8771 7.038C85.3104 7.174 84.8004 7.33833 84.3471 7.531C83.8938 7.71233 83.5368 7.89367 83.2761 8.075L83.2421 7.429C83.2874 7.225 83.4404 6.94167 83.7011 6.579C83.9731 6.205 84.3641 5.831 84.8741 5.457C85.3841 5.083 86.0244 4.76567 86.7951 4.505C87.5771 4.24433 88.5008 4.114 89.5661 4.114Z" fill="white"/>
<path d="M107.825 9.707H111.837C111.735 10.3643 111.406 10.9367 110.851 11.424C110.307 11.9113 109.508 12.291 108.454 12.563C107.411 12.8237 106.08 12.954 104.459 12.954C102.748 12.954 101.269 12.818 100.022 12.546C98.7866 12.274 97.8346 11.815 97.1659 11.169C96.4972 10.523 96.1629 9.65033 96.1629 8.551C96.1629 7.463 96.4859 6.596 97.1319 5.95C97.7892 5.29267 98.7356 4.82233 99.9709 4.539C101.206 4.25567 102.702 4.114 104.459 4.114C106.182 4.114 107.593 4.267 108.692 4.573C109.791 4.879 110.602 5.37767 111.123 6.069C111.644 6.749 111.894 7.67267 111.871 8.84H100.311C100.368 9.13467 100.526 9.40667 100.787 9.656C101.059 9.90533 101.473 10.1093 102.028 10.268C102.595 10.4153 103.348 10.489 104.289 10.489C105.264 10.489 106.063 10.421 106.686 10.285C107.321 10.149 107.7 9.95633 107.825 9.707ZM104.289 6.579C103.088 6.579 102.17 6.70933 101.535 6.97C100.912 7.23067 100.543 7.49133 100.43 7.752H107.91C107.831 7.45733 107.513 7.191 106.958 6.953C106.403 6.70367 105.513 6.579 104.289 6.579Z" fill="white"/>
<path d="M118.326 8.704H122.967C123.046 8.942 123.279 9.146 123.664 9.316C124.049 9.47467 124.565 9.59933 125.211 9.69C125.868 9.76933 126.628 9.809 127.489 9.809C128.339 9.809 129.008 9.78633 129.495 9.741C129.994 9.68433 130.345 9.59367 130.549 9.469C130.753 9.333 130.855 9.15167 130.855 8.925C130.855 8.70967 130.691 8.54533 130.362 8.432C130.033 8.30733 129.45 8.22233 128.611 8.177C127.772 8.13167 126.594 8.109 125.075 8.109C123.942 8.109 122.961 8.058 122.134 7.956C121.318 7.84267 120.644 7.67267 120.111 7.446C119.59 7.208 119.204 6.91333 118.955 6.562C118.706 6.19933 118.581 5.76867 118.581 5.27C118.581 4.40867 118.87 3.70033 119.448 3.145C120.037 2.57833 120.921 2.159 122.1 1.887C123.29 1.60367 124.775 1.462 126.554 1.462C129.161 1.462 131.15 1.84167 132.521 2.601C133.904 3.349 134.595 4.43133 134.595 5.848H130.192C130.135 5.474 129.784 5.19067 129.138 4.998C128.492 4.794 127.574 4.692 126.384 4.692C125.205 4.692 124.327 4.76 123.749 4.896C123.182 5.032 122.899 5.26433 122.899 5.593C122.899 5.763 122.978 5.899 123.137 6.001C123.296 6.103 123.568 6.188 123.953 6.256C124.35 6.31267 124.905 6.35233 125.619 6.375C126.333 6.39767 127.24 6.409 128.339 6.409C129.552 6.409 130.583 6.47133 131.433 6.596C132.283 6.70933 132.969 6.885 133.49 7.123C134.023 7.361 134.408 7.667 134.646 8.041C134.884 8.40367 135.003 8.83433 135.003 9.333C135.003 10.1943 134.731 10.897 134.187 11.441C133.643 11.985 132.782 12.3873 131.603 12.648C130.424 12.9087 128.883 13.039 126.979 13.039C125.902 13.039 124.911 12.9767 124.004 12.852C123.109 12.7273 122.31 12.546 121.607 12.308C120.904 12.0587 120.309 11.7583 119.822 11.407C119.335 11.0443 118.961 10.642 118.7 10.2C118.451 9.74667 118.326 9.248 118.326 8.704Z" fill="white"/>
<path d="M154.02 11.135L152.252 11.101L155.941 4.369H160.446L155.193 12.699H151.351L147.05 6.239L149.056 6.256L144.585 12.699H140.743L135.762 4.369H140.25L143.718 11.101H141.967L145.809 4.369H150.314L154.02 11.135Z" fill="white"/>
<path d="M166.785 12.937C165.561 12.937 164.473 12.767 163.521 12.427C162.569 12.0757 161.815 11.5713 161.26 10.914C160.716 10.2567 160.444 9.46333 160.444 8.534C160.444 7.55933 160.716 6.74333 161.26 6.086C161.815 5.42867 162.569 4.93567 163.521 4.607C164.473 4.27833 165.561 4.114 166.785 4.114C168.145 4.114 169.318 4.301 170.304 4.675C171.301 5.03767 172.066 5.55333 172.599 6.222C173.143 6.87933 173.415 7.65 173.415 8.534C173.415 9.19133 173.262 9.792 172.956 10.336C172.65 10.8687 172.208 11.3333 171.63 11.73C171.052 12.1153 170.355 12.4157 169.539 12.631C168.723 12.835 167.805 12.937 166.785 12.937ZM168.315 10.353C169.176 10.353 169.964 10.302 170.678 10.2C171.403 10.0867 171.981 9.89967 172.412 9.639C172.854 9.37833 173.075 9.01 173.075 8.534C173.075 8.04667 172.854 7.67267 172.412 7.412C171.981 7.15133 171.403 6.97 170.678 6.868C169.964 6.766 169.176 6.715 168.315 6.715C167.159 6.715 166.264 6.868 165.629 7.174C164.994 7.46867 164.677 7.922 164.677 8.534C164.677 8.93067 164.819 9.265 165.102 9.537C165.385 9.809 165.799 10.013 166.343 10.149C166.887 10.285 167.544 10.353 168.315 10.353ZM173.075 4.369H177.155V12.699H173.313C173.313 12.699 173.29 12.5687 173.245 12.308C173.211 12.0473 173.171 11.6733 173.126 11.186C173.092 10.6987 173.075 10.1263 173.075 9.469V4.369Z" fill="white"/>
<path d="M183.181 0V2.55H178.863V0H183.181ZM178.982 4.369H183.062V12.699H178.982V4.369Z" fill="white"/>
<path d="M184.886 4.369H188.966V12.699H184.886V4.369ZM195.086 4.114C195.754 4.114 196.4 4.18767 197.024 4.335C197.647 4.471 198.202 4.709 198.69 5.049C199.188 5.389 199.585 5.85367 199.88 6.443C200.174 7.03233 200.322 7.77467 200.322 8.67V12.699H196.242V9.18C196.242 8.33 196.021 7.72933 195.579 7.378C195.137 7.01533 194.338 6.834 193.182 6.834C192.57 6.834 191.975 6.902 191.397 7.038C190.83 7.174 190.32 7.33833 189.867 7.531C189.413 7.71233 189.056 7.89367 188.796 8.075L188.762 7.429C188.807 7.225 188.96 6.94167 189.221 6.579C189.493 6.205 189.884 5.831 190.394 5.457C190.904 5.083 191.544 4.76567 192.315 4.505C193.097 4.24433 194.02 4.114 195.086 4.114Z" fill="white"/>
</svg>
