<svg width="1386" height="1785" viewBox="0 0 1386 1785" fill="none" xmlns="http://www.w3.org/2000/svg">
<path d="M472.892 432.637C477.436 425.24 482.176 416.98 482.385 413.994C483.221 402.25 467.957 377.556 460.592 367.969C451.532 356.174 436.709 348.506 437.448 332.01C438.241 314.319 458.197 283.073 467.958 267.554C503.876 210.441 557.337 145.124 608.066 100.53C613.453 95.7913 616.722 91.5725 624.647 94.3413C632.301 97.018 636.298 104.792 632.365 112.264C606.151 154.855 572.363 194.104 545.585 235.995C543.671 238.99 534.613 254.238 534.327 256.579C533.328 264.755 544.588 273.738 551.445 267.673C570.375 240.072 590.108 213.066 609.368 185.723C618.49 172.78 639.743 136.391 650.934 128.674C671.593 114.439 682.232 136.777 673.769 155.07C644.431 200.974 611.527 244.406 580.721 289.45C578.167 299.553 591.48 306.72 598.437 299.064C612.201 278.73 626.896 259.025 640.905 238.865C655.904 217.278 671.611 189.297 687.994 169.604C694.482 161.807 706.159 151.4 716.363 159.381C727.338 167.969 720.462 188.238 713.317 197.535L630.636 318.51C625.686 330.934 642.335 340.357 650.025 328.794C675.908 290.875 702.193 253.235 728.343 215.49C735.347 205.385 748.265 175.985 762.893 192.616C766.504 196.721 767.028 199.56 765.576 204.698C762.256 216.452 753.407 234.283 748.2 246.022C721.997 305.06 685.027 370.954 647.608 423.606C634.667 441.808 622.392 460.074 597.072 453.257C580.617 448.827 571.968 443.12 553.276 442.419C543.106 442.034 525.741 433.194 513.33 461.362L472.876 432.635L472.892 432.637Z" fill="#638C3D"/>
<path d="M1365.84 1442.08C1368.51 1438.12 1363.97 1432.78 1360.3 1427.9C1348.04 1411.59 797.773 866.804 782.852 852.398C743.394 814.305 650.229 753.372 624.391 707.188C616.916 693.824 621.649 683.418 623.241 670.158C626.063 646.656 626.491 623.966 628.508 600.384C629.355 590.446 631.803 582.767 630.624 572.511C626.12 533.312 584.654 517.297 571.605 483.092C570.12 479.199 569.158 473.702 567.015 469.683C561.153 458.708 551.876 452.734 540.427 449.4L499.695 451.534C498.111 452.852 467.487 430.383 466.139 429.126C460.239 423.6 455.98 418.078 449.485 413.407C435.262 403.176 422.577 404.421 407.176 410.787C386.123 419.487 377.89 442.814 372.191 462.96C367.221 464.2 361.992 464.041 357.075 465.639C329.934 474.464 320.089 505.981 314.138 530.847C312.672 532.636 302.172 534.568 298.776 536.039C276.27 545.788 259.532 571.499 269.104 595.937C271.341 601.655 275.051 605.509 277.109 610.886C267.748 617.841 258.802 625.116 254.871 636.487C248.626 654.529 253.172 676.015 263.443 691.862C266.956 697.278 272.057 701.398 274.625 707.418L344.249 777.443C354.537 790.063 365.108 799.93 378.887 808.615C393.883 818.068 410.356 822.793 426.526 829.497C451.781 839.976 498.736 861.969 517.082 881.465C556.703 923.553 1009.2 1556.29 1040.29 1605.04L1365.84 1442.08Z" fill="#FCF7DE"/>
<mask id="mask0_1812_45822" style="mask-type:alpha" maskUnits="userSpaceOnUse" x="252" y="405" width="1115" height="1201">
<path d="M1365.84 1442.08C1368.51 1438.12 1363.97 1432.78 1360.3 1427.9C1348.04 1411.59 797.773 866.804 782.852 852.398C743.394 814.305 650.229 753.372 624.391 707.188C616.916 693.824 621.649 683.418 623.241 670.158C626.063 646.656 626.491 623.966 628.508 600.384C629.355 590.446 631.803 582.767 630.624 572.511C626.12 533.312 584.654 517.297 571.605 483.092C570.12 479.199 569.158 473.702 567.015 469.683C561.153 458.708 551.876 452.734 540.427 449.4L499.695 451.534C498.111 452.852 467.487 430.383 466.139 429.126C460.239 423.6 455.98 418.078 449.485 413.407C435.262 403.176 422.577 404.421 407.176 410.787C386.123 419.487 377.89 442.814 372.191 462.96C367.221 464.2 361.992 464.041 357.075 465.639C329.934 474.464 320.089 505.981 314.138 530.847C312.672 532.636 302.172 534.568 298.776 536.039C276.27 545.788 259.532 571.499 269.104 595.937C271.341 601.655 275.051 605.509 277.109 610.886C267.748 617.841 258.802 625.116 254.871 636.487C248.626 654.529 253.172 676.015 263.443 691.862C266.956 697.278 272.057 701.398 274.625 707.418L344.249 777.443C354.537 790.063 365.108 799.93 378.887 808.615C393.883 818.068 410.356 822.793 426.526 829.497C451.781 839.976 498.736 861.969 517.082 881.465C556.703 923.553 1009.2 1556.29 1040.29 1605.04L1365.84 1442.08Z" fill="#FCF7DE"/>
</mask>
<g mask="url(#mask0_1812_45822)">
</g>
<path d="M515.643 450.16L519.595 443.176C532.15 429.023 564.671 433.824 581.437 438.665C604.033 445.19 610.438 454.981 629.847 432.858C644.264 416.418 659.031 390.71 670.828 371.761C697.936 328.215 721.954 285.256 742.578 238.183C747.07 227.926 753.07 215.543 756.393 205.076C757.893 200.349 758.728 197.433 752.624 196.12L748.276 199.991C733.525 221.927 718.838 244.042 703.793 265.813C689.075 287.121 672.678 314.066 656.823 333.661C640.67 353.621 614.093 335.594 623.69 313.6L710.494 186.19C718.914 165.873 709.569 156.116 694.036 175.493C675.795 198.245 659.044 227.169 642.136 251.462C629.431 269.715 616.264 287.641 603.579 305.888C588.573 319.024 563.939 302.51 574.739 283.644C589.243 258.297 611.722 232.003 628.609 207.739C639.965 191.414 655.806 170.499 665.106 153.549C666.834 150.406 668.587 145.005 668.337 141.441C666.854 120.2 649.42 142.141 644.148 149.022C615.191 186.825 590.379 231.767 560.838 269.112C556.728 274.314 554.876 277.083 547.652 277.863C535.614 279.156 524.134 266.467 526.161 254.624C527.473 246.961 541.631 227.394 546.557 220.136C571.801 182.931 599.831 147.395 624.266 109.604C627.555 104.834 623.702 101.819 618.849 101.897C562.481 154.884 510.724 213.202 470.427 279.376C463.454 290.833 444.438 321.889 445.685 334.037C446.797 344.829 458.462 352.141 465.163 360.375C475.463 373.035 495.462 404.28 489.429 420.476C487.742 425.004 484.058 431.339 479.82 438.066L472.874 432.631C477.418 425.234 482.158 416.974 482.368 413.988C483.203 402.243 467.939 377.55 460.574 367.963C451.514 356.168 436.692 348.5 437.43 332.004C438.223 314.313 458.18 283.067 467.94 267.548C503.845 210.439 557.306 145.122 608.034 100.528C613.422 95.7893 616.691 91.5705 624.616 94.3393C632.27 97.016 636.267 104.79 632.334 112.262C606.12 154.853 572.331 194.102 545.553 235.993C543.639 238.988 534.581 254.236 534.295 256.577C533.297 264.753 544.556 273.736 551.414 267.671C570.344 240.07 590.077 213.064 609.337 185.721C618.458 172.778 639.712 136.389 650.903 128.672C671.562 114.437 682.201 136.775 673.738 155.068C644.4 200.972 611.495 244.404 580.69 289.448C578.136 299.551 591.448 306.718 598.406 299.062C612.17 278.728 626.865 259.023 640.874 238.863C655.873 217.276 671.58 189.295 687.963 169.602C694.451 161.805 706.128 151.398 716.332 159.379C727.306 167.967 720.431 188.236 713.285 197.533L630.605 318.508C625.655 330.932 642.304 340.355 649.994 328.792C675.876 290.873 702.162 253.233 728.312 215.488C735.315 205.383 748.233 175.983 762.861 192.614C766.473 196.719 766.997 199.558 765.545 204.696C762.225 216.45 753.376 234.281 748.169 246.02C721.966 305.057 684.995 370.952 647.577 423.604C634.635 441.806 622.361 460.072 597.041 453.255C580.586 448.825 571.937 443.118 553.245 442.417C543.075 442.032 531.294 441.34 524.686 449.741L515.636 450.162L515.643 450.16Z" fill="#111111"/>
<path d="M442.301 509.34L452.409 508.324C448.003 510.807 443.067 512.367 438.63 514.795C427.85 520.692 412.468 530.119 412.885 543.806C413.44 562.091 431.108 575.869 447.021 581.725C457.674 585.645 459.712 584.819 468.8 577.743C476.237 571.953 491.916 555.62 492.271 545.945C492.461 540.84 488.966 533.284 486.245 529.012C485.294 527.52 484.034 524.962 481.885 525.573C484.642 530.291 486.057 536.486 486.326 541.905C486.386 543.137 486.404 551.504 484.623 551.22C482.399 530.695 468.756 494.064 442.301 509.34ZM457.179 575.838C454.902 577.622 450.793 576.239 448.178 575.568C428.874 570.635 403.767 549.487 422.655 529.873C446.612 504.995 469.476 507.258 479.55 542.354C479.944 543.239 478.944 543.337 478.229 543.332C475.648 543.312 466.477 537.488 464.519 535.501L457.124 526.74C459.167 531.901 460.916 535.439 464.972 539.296C474.698 548.552 489.389 547.366 474.843 562.522C462.785 575.085 451.167 569.744 437.779 562.571L420.837 545.595C426.195 560.574 441.902 572.403 457.177 575.832L457.179 575.838Z" fill="#111111"/>
<path d="M463.256 828.266C477.512 830.622 493.566 823.354 506.035 816.762C522.41 808.114 536.901 798.662 549.143 784.592C549.993 783.613 551.287 783.041 551.259 781.49C539.518 789.872 525.599 794.289 513.071 801.165C496.421 810.296 482.143 823.713 463.256 828.266Z" fill="#111111"/>
<path d="M338.575 767.171C352.791 757.474 354.73 742.046 363.675 727.333C365.738 725.05 293.324 709.445 277.42 698.472L293.104 718.798C290.881 720.211 289.298 722.309 288.453 724.72L273.845 706.855C271.278 700.835 266.176 696.716 262.664 691.299C252.392 675.452 247.846 653.967 254.091 635.924C258.023 624.554 266.968 617.279 276.329 610.323C274.271 604.946 270.568 601.09 268.324 595.374C258.753 570.937 275.481 545.22 297.996 535.476C301.393 534.006 311.892 532.073 313.358 530.285C319.302 505.42 329.154 473.901 356.296 465.076C361.212 463.478 366.441 463.637 371.411 462.397C377.111 442.251 385.344 418.924 406.396 410.224C421.797 403.858 437.963 401.933 452.195 412.169C458.69 416.84 462.921 423.806 468.821 429.331C470.163 430.591 497.334 452.296 498.915 450.972L539.647 448.837C551.09 452.173 563.187 458.321 569.047 469.289C571.187 473.301 571.259 477.192 572.745 481.085C585.791 515.283 628.715 534.537 633.219 573.737C634.398 583.993 631.566 592.541 630.72 602.479C628.704 626.068 628.829 649.962 626.006 673.464C624.414 686.724 619.383 692.985 626.858 706.349C652.689 752.536 742.619 813.733 782.077 851.827C796.997 866.232 1347.27 1411.02 1359.53 1427.33C1363.2 1432.22 1367.74 1437.54 1365.07 1441.51C1363.2 1444.29 1359.11 1444.43 1356.8 1442C1350.33 1435.2 1344.4 1427.5 1338.03 1420.51C1285.74 1363.14 673.113 781.559 622.287 722.73C619.852 722.657 620.972 730.857 620.817 732.082C620.169 737.088 618.257 741.789 616.342 746.432C612.882 741.985 614.571 735.294 610.88 730.507C608.958 737.021 609.14 743.247 604.743 748.921C599.637 755.507 584.899 764.05 576.846 766.846C575.618 767.273 574.166 768.277 572.99 767.172L590.768 755.048C597.382 750.537 602.616 737.209 604.864 729.667C605.083 728.929 606.98 724.461 605.631 724.263C596.355 740.322 581.606 751.355 568.259 763.651C563.462 768.066 558.236 775.425 552.949 778.905C551.324 779.97 528.807 785.198 526.026 785.314C525.359 785.346 524.484 785.442 524.083 784.816C525.934 783.46 527.936 782.284 529.789 780.912C530.578 780.328 532.63 779.711 531.676 778.654C518.799 782.071 505.055 783.226 496.952 795.447C495.189 793.848 497.215 790.01 496.182 788.772C494.802 787.105 487.663 785.798 484.129 781.043C482.915 779.413 478.302 768.858 478.04 767.049C477.977 766.635 478.333 765.604 478.597 765.698C481.307 770.122 488.556 778.7 493.497 780.368C496.852 781.5 504.061 778.879 507.326 777.552C507.499 776.689 501.812 774.967 500.651 774.24C490.786 768.029 484.682 757.343 480.048 746.979L477.61 736.887C480.976 738.671 481.087 741.932 482.832 744.581C493.3 760.514 497.86 768.797 517.852 769.8C550.377 771.429 590.786 735.201 605.031 707.485C619.894 678.569 615.879 643.631 621.78 612.489C618.015 611.713 615.831 615.969 613.226 617.877C601.218 626.658 585.108 636.415 570.827 627.107L591.244 625.719C594.279 625.568 607.455 619.52 603.57 616.214L597.051 615.125C617.927 608.054 629.268 595.104 624.613 572.703C618.351 542.548 592.937 521.856 577.037 496.514C575.559 494.157 575.05 491.152 572.946 489.027C570.865 495.759 576.454 501.183 577.968 507.2C578.801 510.509 577.349 512.249 577.461 514.686C577.595 517.594 579.284 520.467 579.456 523.261C579.658 526.435 576.336 534.805 575.049 538.207C574.768 538.957 574.967 540.896 573.5 540.249C574.28 532.576 572.065 525.019 570.769 517.529L568.789 520.36C565.98 504.851 572.79 481.843 561.892 468.663C553.191 458.139 531.437 449.806 518.065 453.237C496.872 458.678 485.048 477.562 467.431 489.282C444.128 504.783 388.115 530.483 407.931 566.809C437.464 620.958 539.876 585.149 547.4 530.056C547.902 526.353 547.416 522.458 548.046 518.789C550.227 525.577 552.866 532.038 551.196 539.239C552.616 539.334 557.8 530.023 557.732 527.918C559.341 528.263 558.786 531.062 558.695 532.187C557.653 544.782 547.319 554.705 541.337 565.139C547.417 563.782 553.754 560.579 558.689 556.724C561.791 554.308 564.076 550.661 567.283 548.418C565.796 553.303 559.61 563.978 555.66 566.672L544.595 574.225C552.871 583.55 566.232 580.344 576.374 576.154C577.153 576.882 575.849 578.105 575.327 578.577C571.732 581.845 562.833 584.993 557.914 585.665C550.835 586.627 544.547 583.753 537.704 582.854C546.3 592.991 561.889 593.512 574.052 591.488C574.741 594.665 568.87 595.869 566.385 596.489C560.185 598.03 553.681 596.894 547.433 597.832C550.4 605.324 559.273 607.923 566.626 607.581L582.53 605.355L572.804 611.991C562.351 619.125 547.459 615.128 537.779 608.712C534.275 606.391 531.825 603.439 528.676 601.197C527.71 600.505 528.136 599.887 526.639 601.222C527.929 616.483 541.016 622.572 550.6 632.056C532.155 628.04 511.89 613.13 512.791 592.478C512.617 591.921 511.926 592.394 511.584 592.832C507.577 597.869 511.121 610.802 513.264 616.24C511.123 616.687 508.958 613.021 508 611.458C505.824 607.898 505.69 603.783 503.418 600.364C502.217 600.076 501.25 606.771 501.118 607.812C499.779 618.412 502.158 629.022 506.072 638.845C504.638 639.484 504.007 638.216 503.127 637.468C499.482 634.366 496.764 630.151 493.104 627.046C485.633 634.708 483.076 639.654 484.938 650.33C485.685 654.614 490.041 671.524 492.045 674.461L499.369 685.193C499.665 685.623 503.596 687.4 501.891 688.873C484.027 678.548 475.806 657.406 473.857 637.715C472.71 637.079 472.291 638.946 471.958 639.697C461.846 662.447 471.552 679.831 482.853 699.903C481.951 700.692 480.45 698.967 479.94 698.369C474.261 691.714 472.237 683.73 467.728 676.461C464.368 673.918 461.024 682.545 460.316 684.832C455.46 700.53 463.78 724.518 470.206 739.003C469.15 739.957 468.534 737.913 467.95 737.123C466.222 734.763 464.487 730.684 462.489 729.04C461.518 728.239 462.031 727.594 460.437 728.973C461.397 733.611 461.348 738.46 462.414 743.086C463.374 747.253 466.717 753.803 467.155 756.838C467.208 757.196 467.013 757.986 466.598 758.189C465.496 757.958 460.995 751.165 458.429 751.971C461.638 769.732 467.168 789.462 452.662 804.061C456.038 791.377 456.21 778.802 455.574 765.758C454.444 742.465 452.699 708.813 443.641 687.534C442.924 685.845 438.968 676.432 438.247 676.289C434.377 678.958 428.85 682.351 424.303 683.576C422.13 684.158 419.949 683.322 418.982 683.667C417.62 684.158 412.114 693.995 411.513 696.081C410.578 699.337 410.885 703.273 409.983 706.894C404.153 730.119 391.317 745 373.049 760.108C371.096 761.467 371.759 759.745 372.37 758.804C379.659 747.558 388.397 738.862 394.264 726.123C394.804 724.954 398.821 716.074 396.331 715.709L369.591 742.779L379.068 723.538C379.074 722.329 374.46 723.789 373.844 724.694L344.811 775.521C353.866 784.868 363.695 793.65 374.746 800.573C389.382 809.741 405.95 814.584 421.651 821.389C431.875 825.818 441.703 832.143 452.247 835.737C468.124 841.148 499.578 836.505 515.633 831.223C516.467 830.948 517.767 829.999 518.282 831.082L508.556 837.717C507.002 838.775 500.757 840.691 498.511 841.391C491.885 843.456 484.616 843.264 478.587 846.371C478.452 846.928 483.875 849.387 484.71 849.517C487.842 850.005 499.11 848.65 502.546 847.896C511.076 846.018 518.318 841.988 526.028 838.093C526.879 839.336 513.475 848.264 511.663 849.131C505.781 851.927 497.41 851.387 491.277 853.452C507.058 861.998 520.787 873.928 531.743 888.215C570.266 938.445 1021.22 1532.98 1069.37 1586.08C1070.2 1586.98 1070.76 1588.13 1070.8 1589.35C1070.96 1594.68 1062.99 1598.04 1058.61 1592.98C1054.25 1587.96 1043.29 1610.38 1039.55 1604.51C1008.46 1555.76 554.338 924.537 514.717 882.448C496.364 862.954 451.766 843.309 426.505 832.832C410.341 826.127 393.929 821.927 378.926 812.476C365.148 803.791 353.02 792.422 342.732 779.803L335.252 771.878L338.614 767.203L338.575 767.171ZM431.928 508.532C453.691 494.086 474.898 479.01 494.04 461.253C483.488 452.909 475.318 441.447 465.244 432.727C459.028 427.343 449.83 423.419 444.036 418.139C443.091 417.279 443.257 417.058 444.343 416.528L453.489 419.13C449.873 414.349 443.608 409.613 437.733 408.229C436.233 407.88 425.154 407.668 427.042 409.147L431.109 410.793C430.763 411.88 424.291 410.755 422.627 410.868C404.527 412.065 391.151 423.678 385.107 440.385C381.855 449.38 380.509 461.564 386.7 469.603L389.89 452.689C393.018 457.673 394.041 466.602 396.684 471.26C398.671 474.753 403.273 483.031 405.561 485.746C409.295 490.174 419.772 496.716 424.849 501.16C427.398 503.389 429.959 505.754 431.928 508.532ZM441.566 635.35C453.99 643.397 475.458 627.034 482.717 617.18C484.739 614.439 487.236 610.056 487.028 606.604C479.107 614.803 468.3 621.863 457.834 626.478C456.599 627.025 456.981 627.708 455.925 625.852C465.347 618.031 474.244 609.138 480.631 598.68C475.519 598.47 471.274 602.699 466.056 604.7C461.266 606.538 455.667 608.143 457.435 600.713L456.777 599.734C442.385 600.083 422.436 594.285 412.925 582.814C398.202 565.051 391.341 536.231 413.481 521.13L423.88 514.034C420.31 509.872 416.865 505.523 413.096 501.526C407.073 495.133 395.014 481.955 386.807 479.862C384.665 479.316 382.607 479.795 380.494 479.247L382.254 476.065C380.743 472.254 365.463 475.043 361.984 475.163L365.323 471.43C336.409 474.164 321.22 505.816 322.048 531.918L324.196 532.933C328.072 533.329 324.964 528.265 324.709 525.983C324.47 523.872 324.164 520.716 324.832 518.705C327.737 526.069 330.66 532.781 335.929 538.878C340.271 543.911 346.679 547.668 351.492 552.392C380.651 581.07 409.578 609.754 441.577 635.362L441.566 635.35ZM418.059 665.452L413.854 672.236C421.165 668.832 436.264 656.962 435.516 647.999C434.757 638.951 429.314 650.549 427.404 652.895C424.081 656.962 419.337 661.736 413.744 661.992C412.071 660.329 418.578 656.3 419.81 654.967C423.864 650.577 428.251 644.965 428.369 638.778C424.769 640.496 422.374 633.635 420.169 631.092C409.285 618.497 399.36 612.165 387.76 601.595C373.97 589.022 357.644 573.745 344.704 560.407C342.094 557.719 341.017 553.059 336.857 555.15C331.674 545.317 325.324 537.474 313.301 537.939C302.696 538.352 292.77 543.851 286.165 552C284.566 553.977 279.797 563.18 279.224 563.536C278.236 564.145 277.798 563.399 277.763 562.107C277.701 559.522 279.475 557.094 279.492 554.55C268.697 570.457 270.883 592.914 283.224 607.424C298.249 625.093 334.989 649.857 356.406 659.258C364.348 662.743 390.142 673.393 397.528 673.556C404.654 673.712 411.853 668.482 418.05 665.469L418.059 665.452ZM267.578 684.051L274.214 693.777L276.056 692.063L274.86 690.398L278.864 687.759C295.426 701.293 319.696 710.902 340.769 714.217C342.787 714.53 345.241 713.787 347.187 714.27C350.441 715.08 354.655 718.453 358.501 719.345C372.595 722.619 392.55 701.805 395.329 688.315L394.317 687.549L388.878 696.159C387.384 693.064 391.623 684.614 389.432 682.729C369.17 676.138 350.003 666.05 331.357 655.814C327.55 653.727 324.098 650.322 321.01 648.724C317.151 646.726 311.218 646.809 308.154 642.525C307.218 641.221 307.05 639.478 306.117 638.113C301.412 631.207 289.254 632.751 283.967 625.18L271.517 630.744C272.018 623.783 279.896 621.77 284.904 618.672L282.643 616.75C263.444 624.998 255.123 636.522 258.667 657.246C259.735 663.483 264.26 679.185 267.587 684.056L267.578 684.051Z" fill="#111111"/>
<path d="M189.583 873.674C227.09 812.24 255.813 766.675 295.179 706.346C297.787 707.277 299.262 707.737 302.041 708.652C262.531 769.489 234.687 816.2 196.716 877.985C191.63 888.839 202.146 898.908 210.073 905.083C230.615 921.069 249.937 919.404 263.354 895.713L359.806 725.386C361.172 725.85 362.535 726.212 364.025 726.484C365.802 726.828 367.64 726.8 369.376 726.303C342.367 774.608 315.196 822.816 287.524 870.717C281.673 880.839 275.221 893.237 268.713 902.644C259.148 916.475 249.311 925.728 230.938 923.831C212.587 921.934 177.289 895.419 189.583 873.674Z" fill="#111111"/>
<path d="M299.001 707.421C260.384 766.637 231.923 811.806 194.899 872.448C189.951 881.242 194.221 891.646 203.565 900.992C208.114 905.542 213.603 909.529 219.044 912.482C224.525 915.457 229.743 917.267 233.745 917.68C242.253 918.559 248.55 916.858 253.824 913.486C259.213 910.041 263.763 904.71 268.476 897.895L268.476 897.894C274.884 888.632 281.176 876.517 287.144 866.193C313.837 819.986 340.065 773.488 366.137 726.885C366.047 726.869 365.957 726.855 365.868 726.838L365.725 726.81L365.584 726.769L303.6 708.937L303.54 708.92L303.481 708.901C301.687 708.311 300.411 707.898 299.001 707.421Z" fill="#638C3D" stroke="#111111" stroke-width="6.58114"/>
</svg>
