<svg width="1386" height="1785" viewBox="0 0 1386 1785" fill="none" xmlns="http://www.w3.org/2000/svg">
<path d="M472.888 432.638C477.432 425.241 482.171 416.981 482.381 413.995C483.217 402.25 467.953 377.556 460.588 367.97C451.528 356.174 436.705 348.507 437.444 332.01C438.236 314.32 458.193 283.073 467.954 267.555C503.872 210.441 557.333 145.125 608.061 100.531C613.449 95.7919 616.718 91.5731 624.643 94.3419C632.297 97.0187 636.294 104.793 632.361 112.264C606.147 154.855 572.358 194.105 545.58 235.996C543.666 238.991 534.608 254.239 534.322 256.579C533.324 264.755 544.583 273.739 551.441 267.674C570.371 240.072 590.104 213.067 609.364 185.723C618.486 172.78 639.739 136.392 650.93 128.675C671.589 114.439 682.228 136.778 673.765 155.07C644.427 200.975 611.522 244.407 580.717 289.451C578.163 299.553 591.475 306.72 598.433 299.064C612.197 278.73 626.892 259.026 640.901 238.865C655.9 217.278 671.607 189.298 687.99 169.604C694.478 161.808 706.155 151.401 716.359 159.382C727.333 167.969 720.458 188.239 713.313 197.535L630.632 318.511C625.682 330.934 642.331 340.358 650.021 328.795C675.903 290.876 702.189 253.236 728.339 215.491C735.343 205.385 748.261 175.986 762.889 192.616C766.5 196.722 767.024 199.56 765.572 204.699C762.252 216.452 753.403 234.284 748.196 246.022C721.993 305.06 685.022 370.955 647.604 423.606C634.663 441.808 622.388 460.074 597.068 453.257C580.613 448.828 571.964 443.121 553.272 442.419C543.102 442.035 525.737 433.195 513.325 461.362L472.872 432.635L472.888 432.638Z" fill="#C8202F"/>
<path d="M1365.84 1442.08C1368.52 1438.12 1363.98 1432.78 1360.31 1427.9C1348.05 1411.59 797.776 866.805 782.856 852.399C743.398 814.306 650.232 753.374 624.394 707.189C616.92 693.825 621.653 683.419 623.245 670.159C626.067 646.657 626.494 623.967 628.512 600.385C629.359 590.447 631.807 582.768 630.627 572.512C626.123 533.313 584.658 517.298 571.609 483.093C570.124 479.2 569.161 473.703 567.019 469.684C561.157 458.709 551.88 452.735 540.431 449.401L499.698 451.535C498.115 452.853 467.491 430.385 466.143 429.127C460.242 423.601 455.984 418.079 449.489 413.408C435.266 403.177 422.58 404.422 407.179 410.788C386.127 419.488 377.894 442.815 372.194 462.961C367.225 464.201 361.996 464.042 357.079 465.64C329.937 474.465 320.092 505.982 314.142 530.849C312.676 532.637 302.176 534.569 298.779 536.04C276.274 545.789 259.536 571.501 269.107 595.938C271.345 601.656 275.055 605.51 277.112 610.887C267.751 617.842 258.806 625.117 254.874 636.488C248.629 654.531 253.176 676.016 263.447 691.863C266.959 697.28 272.061 701.399 274.628 707.419L344.252 777.444C354.541 790.064 365.112 799.931 378.89 808.616C393.886 818.069 410.36 822.794 426.529 829.498C451.785 839.977 498.74 861.97 517.086 881.466C556.707 923.554 1009.2 1556.29 1040.3 1605.04L1365.84 1442.08Z" fill="#FCF7DE"/>
<mask id="mask0_1812_45337" style="mask-type:alpha" maskUnits="userSpaceOnUse" x="252" y="405" width="1115" height="1201">
<path d="M1365.84 1442.08C1368.52 1438.12 1363.98 1432.78 1360.31 1427.9C1348.05 1411.59 797.776 866.805 782.856 852.399C743.398 814.306 650.232 753.374 624.394 707.189C616.92 693.825 621.653 683.419 623.245 670.159C626.067 646.657 626.494 623.967 628.512 600.385C629.359 590.447 631.807 582.768 630.627 572.512C626.123 533.313 584.658 517.298 571.609 483.093C570.124 479.2 569.161 473.703 567.019 469.684C561.157 458.709 551.88 452.735 540.431 449.401L499.698 451.535C498.115 452.853 467.491 430.385 466.143 429.127C460.242 423.601 455.984 418.079 449.489 413.408C435.266 403.177 422.58 404.422 407.179 410.788C386.127 419.488 377.894 442.815 372.194 462.961C367.225 464.201 361.996 464.042 357.079 465.64C329.937 474.465 320.092 505.982 314.142 530.849C312.676 532.637 302.176 534.569 298.779 536.04C276.274 545.789 259.536 571.501 269.107 595.938C271.345 601.656 275.055 605.51 277.112 610.887C267.751 617.842 258.806 625.117 254.874 636.488C248.629 654.531 253.176 676.016 263.447 691.863C266.959 697.28 272.061 701.399 274.628 707.419L344.252 777.444C354.541 790.064 365.112 799.931 378.89 808.616C393.886 818.069 410.36 822.794 426.529 829.498C451.785 839.977 498.74 861.97 517.086 881.466C556.707 923.554 1009.2 1556.29 1040.3 1605.04L1365.84 1442.08Z" fill="#FCF7DE"/>
</mask>
<g mask="url(#mask0_1812_45337)">
</g>
<path d="M515.646 450.161L519.599 443.177C532.154 429.024 564.674 433.826 581.441 438.666C604.037 445.191 610.442 454.982 629.85 432.859C644.268 416.419 659.035 390.711 670.832 371.762C697.94 328.216 721.957 285.257 742.582 238.184C747.074 227.927 753.074 215.544 756.397 205.077C757.896 200.35 758.731 197.434 752.628 196.121L748.279 199.992C733.529 221.928 718.842 244.043 703.797 265.814C689.079 287.122 672.682 314.067 656.827 333.662C640.673 353.622 614.096 335.595 623.694 313.601L710.498 186.191C718.918 165.874 709.573 156.117 694.04 175.494C675.799 198.246 659.047 227.17 642.14 251.463C629.435 269.716 616.268 287.642 603.583 305.889C588.577 319.025 563.943 302.511 574.743 283.645C589.247 258.298 611.726 232.004 628.612 207.74C639.969 191.415 655.81 170.5 665.11 153.55C666.838 150.407 668.591 145.006 668.341 141.442C666.858 120.201 649.424 142.142 644.152 149.023C615.195 186.826 590.383 231.768 560.842 269.113C556.732 274.315 554.88 277.084 547.656 277.864C535.618 279.157 524.138 266.468 526.164 254.625C527.477 246.962 541.634 227.395 546.56 220.137C571.804 182.932 599.834 147.397 624.27 109.605C627.559 104.835 623.706 101.82 618.852 101.898C562.484 154.885 510.727 213.203 470.43 279.377C463.457 290.834 444.442 321.89 445.689 334.038C446.8 344.83 458.466 352.142 465.166 360.376C475.467 373.036 495.466 404.281 489.432 420.477C487.746 425.005 484.062 431.34 479.824 438.067L472.878 432.632C477.422 425.235 482.161 416.975 482.371 413.989C483.207 402.244 467.942 377.551 460.578 367.964C451.518 356.169 436.695 348.501 437.433 332.005C438.226 314.314 458.183 283.068 467.944 267.549C503.848 210.44 557.309 145.123 608.038 100.529C613.425 95.7904 616.694 91.5716 624.62 94.3403C632.274 97.0171 636.27 104.791 632.338 112.263C606.123 154.854 572.335 194.103 545.557 235.995C543.643 238.989 534.585 254.237 534.299 256.578C533.3 264.754 544.56 273.737 551.418 267.672C570.347 240.071 590.081 213.065 609.341 185.722C618.462 172.779 639.715 136.39 650.907 128.673C671.566 114.438 682.204 136.776 673.742 155.069C644.403 200.973 611.499 244.405 580.693 289.449C578.139 299.552 591.452 306.719 598.41 299.063C612.173 278.729 626.869 259.024 640.877 238.864C655.876 217.277 671.583 189.296 687.967 169.603C694.454 161.806 706.132 151.399 716.336 159.38C727.31 167.968 720.435 188.237 713.289 197.534L630.608 318.509C625.658 330.933 642.308 340.356 649.998 328.793C675.88 290.874 702.165 253.234 728.315 215.489C735.319 205.384 748.237 175.985 762.865 192.615C766.476 196.72 767 199.559 765.548 204.697C762.229 216.451 753.38 234.282 748.172 246.021C721.969 305.059 684.999 370.953 647.581 423.605C634.639 441.807 622.365 460.073 597.044 453.256C580.59 448.826 571.94 443.119 553.248 442.418C543.079 442.033 531.298 441.341 524.69 449.742L515.64 450.163L515.646 450.161Z" fill="#111111"/>
<path d="M442.304 509.341L452.413 508.325C448.007 510.808 443.071 512.369 438.633 514.796C427.854 520.693 412.472 530.12 412.889 543.807C413.444 562.092 431.112 575.87 447.025 581.727C457.678 585.646 459.716 584.82 468.804 577.744C476.24 571.954 491.92 555.621 492.275 545.947C492.465 540.841 488.97 533.285 486.248 529.013C485.298 527.521 484.038 524.963 481.888 525.574C484.646 530.292 486.061 536.487 486.33 541.906C486.39 543.138 486.407 551.505 484.627 551.221C482.403 530.696 468.76 494.065 442.304 509.341ZM457.183 575.84C454.906 577.623 450.797 576.24 448.182 575.569C428.878 570.636 403.771 549.488 422.659 529.874C446.615 504.996 469.48 507.259 479.554 542.355C479.947 543.24 478.948 543.338 478.233 543.333C475.652 543.313 466.48 537.489 464.522 535.502L457.128 526.741C459.17 531.902 460.92 535.44 464.976 539.297C474.702 548.553 489.392 547.367 474.847 562.523C462.789 575.086 451.171 569.745 437.783 562.572L420.84 545.596C426.199 560.575 441.906 572.404 457.18 575.833L457.183 575.84Z" fill="#111111"/>
<path d="M463.26 828.267C477.516 830.623 493.57 823.355 506.039 816.763C522.413 808.115 536.904 798.663 549.147 784.593C549.997 783.614 551.29 783.042 551.263 781.491C539.521 789.873 525.603 794.29 513.075 801.166C496.424 810.297 482.146 823.714 463.26 828.267Z" fill="#111111"/>
<path d="M338.579 767.172C352.795 757.475 354.734 742.047 363.679 727.334C365.741 725.051 293.327 709.446 277.424 698.473L293.108 718.799C290.885 720.213 289.302 722.31 288.457 724.721L273.849 706.856C271.281 700.836 266.179 696.717 262.667 691.3C252.396 675.453 247.85 653.968 254.095 635.925C258.026 624.555 266.972 617.28 276.333 610.324C274.275 604.947 270.572 601.091 268.328 595.375C258.756 570.938 275.485 545.222 298 535.477C301.396 534.007 311.896 532.074 313.362 530.286C319.306 505.421 329.158 473.902 356.299 465.077C361.216 463.479 366.445 463.638 371.414 462.398C377.114 442.252 385.347 418.926 406.399 410.225C421.8 403.859 437.967 401.934 452.199 412.17C458.694 416.841 462.924 423.807 468.825 429.332C470.166 430.592 497.337 452.297 498.919 450.973L539.651 448.838C551.093 452.174 563.191 458.322 569.051 469.29C571.191 473.302 571.263 477.193 572.748 481.086C585.795 515.284 628.719 534.538 633.222 573.738C634.402 583.994 631.57 592.542 630.723 602.48C628.708 626.069 628.832 649.963 626.01 673.465C624.418 686.725 619.387 692.986 626.861 706.35C652.693 752.537 742.623 813.734 782.08 851.828C797.001 866.233 1347.27 1411.02 1359.53 1427.33C1363.2 1432.22 1367.74 1437.55 1365.07 1441.51C1363.2 1444.29 1359.11 1444.44 1356.8 1442.01C1350.33 1435.2 1344.41 1427.5 1338.04 1420.51C1285.74 1363.14 673.117 781.56 622.291 722.731C619.855 722.658 620.976 730.858 620.82 732.083C620.173 737.089 618.261 741.79 616.345 746.433C612.885 741.986 614.574 735.295 610.883 730.508C608.962 737.022 609.144 743.248 604.746 748.922C599.64 755.508 584.903 764.051 576.85 766.847C575.622 767.274 574.169 768.278 572.994 767.173L590.772 755.049C597.386 750.539 602.62 737.21 604.868 729.668C605.087 728.93 606.983 724.462 605.634 724.264C596.358 740.323 581.61 751.356 568.262 763.652C563.465 768.067 558.24 775.426 552.953 778.906C551.328 779.971 528.811 785.199 526.03 785.315C525.362 785.347 524.487 785.443 524.087 784.817C525.937 783.461 527.94 782.285 529.793 780.913C530.582 780.329 532.634 779.712 531.679 778.655C518.802 782.072 505.059 783.227 496.956 795.448C495.192 793.85 497.219 790.011 496.186 788.773C494.805 787.106 487.667 785.799 484.132 781.044C482.918 779.414 478.305 768.859 478.043 767.05C477.98 766.636 478.336 765.605 478.601 765.699C481.311 770.123 488.56 778.701 493.501 780.369C496.855 781.501 504.065 778.88 507.33 777.553C507.503 776.69 501.816 774.968 500.655 774.241C490.789 768.03 484.686 757.344 480.052 746.98L477.614 736.888C480.98 738.672 481.091 741.933 482.836 744.582C493.303 760.515 497.863 768.798 517.855 769.801C550.381 771.43 590.79 735.202 605.034 707.486C619.898 678.57 615.883 643.632 621.784 612.49C618.018 611.714 615.835 615.97 613.229 617.878C601.222 626.659 585.112 636.416 570.831 627.108L591.248 625.72C594.283 625.569 607.458 619.521 603.574 616.215L597.055 615.126C617.93 608.056 629.271 595.105 624.616 572.704C618.355 542.549 592.941 521.857 577.041 496.515C575.563 494.158 575.054 491.153 572.949 489.028C570.868 495.76 576.458 501.184 577.972 507.201C578.804 510.51 577.353 512.25 577.465 514.687C577.598 517.595 579.288 520.468 579.459 523.262C579.661 526.436 576.339 534.806 575.053 538.208C574.771 538.958 574.971 540.897 573.504 540.25C574.284 532.577 572.069 525.02 570.773 517.53L568.793 520.361C565.984 504.852 572.793 481.844 561.896 468.664C553.195 458.14 531.441 449.807 518.068 453.238C496.876 458.679 485.052 477.563 467.435 489.283C444.131 504.784 388.119 530.484 407.935 566.81C437.468 620.959 539.88 585.15 547.404 530.057C547.905 526.354 547.42 522.459 548.05 518.79C550.231 525.578 552.87 532.039 551.199 539.24C552.619 539.335 557.803 530.024 557.736 527.919C559.344 528.264 558.789 531.063 558.698 532.188C557.657 544.783 547.322 554.706 541.34 565.14C547.421 563.783 553.758 560.58 558.692 556.725C561.795 554.309 564.079 550.662 567.287 548.419C565.8 553.304 559.614 563.979 555.664 566.673L544.598 574.226C552.874 583.551 566.236 580.345 576.378 576.155C577.157 576.883 575.853 578.106 575.33 578.578C571.736 581.846 562.836 584.994 557.918 585.666C550.839 586.628 544.55 583.754 537.708 582.855C546.303 592.992 561.893 593.513 574.056 591.489C574.744 594.666 568.874 595.87 566.389 596.49C560.189 598.031 553.684 596.895 547.437 597.833C550.404 605.325 559.276 607.924 566.63 607.582L582.534 605.356L572.808 611.992C562.355 619.126 547.462 615.129 537.783 608.713C534.278 606.392 531.828 603.44 528.68 601.198C527.714 600.506 528.139 599.888 526.642 601.223C527.932 616.484 541.02 622.573 550.603 632.057C532.159 628.041 511.894 613.131 512.794 592.479C512.621 591.922 511.93 592.395 511.588 592.833C507.581 597.87 511.125 610.803 513.268 616.241C511.126 616.688 508.962 613.022 508.004 611.459C505.828 607.899 505.693 603.784 503.422 600.365C502.221 600.077 501.254 606.772 501.122 607.813C499.782 618.413 502.161 629.023 506.076 638.846C504.641 639.485 504.011 638.217 503.13 637.469C499.486 634.367 496.767 630.152 493.107 627.047C485.636 634.709 483.08 639.655 484.942 650.331C485.688 654.616 490.045 671.525 492.049 674.462L499.373 685.194C499.669 685.624 503.599 687.401 501.895 688.874C484.03 678.549 475.81 657.407 473.86 637.716C472.713 637.08 472.294 638.947 471.962 639.698C461.85 662.448 471.555 679.832 482.857 699.904C481.955 700.693 480.453 698.968 479.943 698.37C474.265 691.715 472.241 683.731 467.732 676.462C464.372 673.919 461.027 682.546 460.32 684.834C455.463 700.531 463.784 724.519 470.21 739.004C469.153 739.958 468.538 737.914 467.954 737.124C466.225 734.764 464.491 730.685 462.493 729.041C461.522 728.24 462.035 727.595 460.441 728.974C461.401 733.612 461.352 738.461 462.418 743.087C463.378 747.254 466.721 753.804 467.159 756.839C467.212 757.197 467.016 757.987 466.601 758.19C465.499 757.959 460.999 751.166 458.433 751.973C461.642 769.733 467.171 789.463 452.666 804.062C456.041 791.379 456.214 778.803 455.578 765.759C454.448 742.466 452.703 708.814 443.645 687.535C442.927 685.846 438.972 676.433 438.25 676.29C434.381 678.959 428.854 682.352 424.306 683.577C422.133 684.159 419.953 683.323 418.986 683.668C417.623 684.159 412.118 693.996 411.517 696.082C410.582 699.338 410.889 703.274 409.986 706.895C404.157 730.12 391.321 745.001 373.053 760.11C371.1 761.468 371.762 759.746 372.374 758.805C379.663 747.559 388.4 738.863 394.267 726.124C394.808 724.955 398.824 716.075 396.334 715.71L369.595 742.78L379.072 723.539C379.078 722.33 374.464 723.79 373.848 724.695L344.815 775.522C353.87 784.869 363.699 793.651 374.75 800.574C389.385 809.742 405.954 814.585 421.655 821.39C431.878 825.819 441.706 832.144 452.25 835.738C468.128 841.149 499.581 836.506 515.637 831.224C516.471 830.949 517.771 830 518.285 831.083L508.559 837.718C507.006 838.776 500.761 840.692 498.514 841.392C491.889 843.457 484.619 843.265 478.591 846.372C478.455 846.929 483.879 849.388 484.714 849.518C487.845 850.006 499.113 848.651 502.549 847.897C511.08 846.019 518.321 841.989 526.031 838.094C526.882 839.337 513.479 848.265 511.667 849.132C505.785 851.928 497.413 851.388 491.281 853.453C507.061 861.999 520.791 873.929 531.746 888.216C570.27 938.446 1021.22 1532.98 1069.38 1586.08C1070.2 1586.98 1070.76 1588.13 1070.8 1589.36C1070.97 1594.68 1063 1598.04 1058.61 1592.98C1054.26 1587.96 1043.29 1610.38 1039.55 1604.51C1008.46 1555.77 554.342 924.538 514.72 882.449C496.368 862.955 451.77 843.311 426.508 832.833C410.345 826.128 393.933 821.928 378.93 812.477C365.152 803.792 353.024 792.423 342.735 779.804L335.256 771.879L338.618 767.204L338.579 767.172ZM431.932 508.534C453.695 494.087 474.902 479.011 494.044 461.254C483.491 452.91 475.322 441.448 465.248 432.728C459.031 427.344 449.834 423.42 444.039 418.14C443.094 417.28 443.261 417.059 444.346 416.529L453.493 419.131C449.877 414.35 443.612 409.614 437.736 408.23C436.237 407.881 425.158 407.669 427.046 409.148L431.112 410.794C430.766 411.881 424.295 410.756 422.631 410.869C404.53 412.066 391.154 423.679 385.111 440.386C381.859 449.381 380.513 461.565 386.704 469.604L389.894 452.69C393.021 457.675 394.045 466.603 396.688 471.261C398.674 474.754 403.276 483.032 405.564 485.747C409.298 490.175 419.775 496.717 424.853 501.161C427.401 503.39 429.963 505.756 431.932 508.534ZM441.57 635.351C453.994 643.399 475.462 627.035 482.72 617.181C484.743 614.44 487.24 610.057 487.032 606.605C479.111 614.804 468.303 621.864 457.838 626.479C456.603 627.026 456.985 627.709 455.928 625.853C465.351 618.032 474.248 609.139 480.635 598.681C475.522 598.471 471.278 602.7 466.06 604.701C461.27 606.539 455.671 608.144 457.439 600.714L456.781 599.735C442.389 600.084 422.44 594.286 412.929 582.815C398.206 565.052 391.345 536.232 413.485 521.131L423.884 514.036C420.314 509.873 416.869 505.524 413.1 501.527C407.077 495.134 395.018 481.956 386.81 479.864C384.668 479.317 382.611 479.796 380.497 479.248L382.257 476.066C380.746 472.255 365.467 475.044 361.988 475.164L365.327 471.431C336.413 474.165 321.224 505.817 322.052 531.919L324.2 532.934C328.076 533.33 324.967 528.266 324.712 525.984C324.474 523.873 324.167 520.717 324.836 518.706C327.741 526.07 330.663 532.782 335.933 538.879C340.274 543.912 346.683 547.669 351.495 552.393C380.655 581.071 409.581 609.755 441.581 635.363L441.57 635.351ZM418.063 665.453L413.857 672.237C421.169 668.833 436.267 656.963 435.52 648C434.761 638.952 429.318 650.55 427.408 652.896C424.084 656.963 419.34 661.737 413.748 661.993C412.075 660.33 418.581 656.301 419.814 654.968C423.868 650.578 428.255 644.966 428.373 638.779C424.773 640.497 422.378 633.636 420.173 631.093C409.289 618.498 399.363 612.166 387.764 601.596C373.973 589.024 357.648 573.746 344.708 560.408C342.097 557.72 341.021 553.06 336.861 555.151C331.678 545.318 325.328 537.475 313.304 537.94C302.699 538.353 292.774 543.852 286.168 552.001C284.57 553.978 279.801 563.181 279.227 563.537C278.24 564.146 277.802 563.4 277.767 562.108C277.705 559.523 279.479 557.095 279.496 554.551C268.701 570.458 270.886 592.915 283.228 607.425C298.253 625.094 334.992 649.858 356.41 659.259C364.352 662.744 390.146 673.394 397.532 673.557C404.658 673.713 411.856 668.483 418.054 665.47L418.063 665.453ZM267.582 684.053L274.217 693.778L276.059 692.064L274.864 690.399L278.868 687.761C295.43 701.294 319.7 710.903 340.773 714.218C342.791 714.531 345.245 713.788 347.19 714.271C350.444 715.081 354.659 718.455 358.505 719.346C372.598 722.62 392.554 701.806 395.332 688.316L394.321 687.55L388.882 696.16C387.388 693.065 391.626 684.615 389.435 682.73C369.173 676.139 350.006 666.051 331.36 655.816C327.554 653.728 324.102 650.323 321.014 648.725C317.155 646.727 311.221 646.81 308.158 642.526C307.222 641.222 307.054 639.479 306.121 638.114C301.416 631.208 289.258 632.752 283.971 625.181L271.521 630.745C272.022 623.784 279.899 621.771 284.908 618.673L282.646 616.751C263.447 624.999 255.127 636.523 258.671 657.247C259.739 663.484 264.263 679.186 267.591 684.057L267.582 684.053Z" fill="#111111"/>
<path d="M189.586 873.675C227.093 812.241 255.816 766.676 295.183 706.347C297.791 707.278 299.266 707.738 302.045 708.653C262.535 769.49 234.691 816.201 196.719 877.986C191.634 888.84 202.15 898.909 210.077 905.084C230.618 921.071 249.941 919.405 263.357 895.714L359.809 725.387C361.175 725.851 362.539 726.214 364.029 726.485C365.806 726.829 367.644 726.801 369.38 726.304C342.371 774.609 315.199 822.817 287.528 870.718C281.677 880.84 275.225 893.238 268.717 902.645C259.152 916.477 249.314 925.729 230.941 923.832C212.591 921.935 177.293 895.42 189.586 873.675Z" fill="#111111"/>
<path d="M298.996 707.422C260.38 766.638 231.919 811.807 194.895 872.449C189.947 881.243 194.217 891.647 203.56 900.993C208.11 905.543 213.599 909.53 219.04 912.483C224.521 915.458 229.738 917.268 233.741 917.681C242.249 918.56 248.546 916.859 253.82 913.487C259.209 910.042 263.759 904.711 268.472 897.896L268.472 897.895C274.88 888.633 281.172 876.518 287.14 866.194C313.833 819.987 340.06 773.489 366.133 726.886C366.043 726.87 365.953 726.856 365.864 726.839L365.72 726.811L365.58 726.77L303.596 708.938L303.536 708.921L303.477 708.902C301.683 708.312 300.407 707.899 298.996 707.422Z" fill="#C8202F" stroke="#111111" stroke-width="6.58114"/>
</svg>
