<svg width="2692" height="3350" viewBox="0 0 2692 3350" fill="none" xmlns="http://www.w3.org/2000/svg">
<mask id="mask0_1812_45753" style="mask-type:alpha" maskUnits="userSpaceOnUse" x="0" y="0" width="2692" height="3350">
<rect width="2692" height="3350" transform="matrix(-1 0 0 1 2692 0)" fill="#FDD801"/>
</mask>
<g mask="url(#mask0_1812_45753)">
<path d="M2605.34 54.6853C2574 46.0159 2538.69 70.3237 2519.74 83.4129C2491.34 103.046 2464.05 124.636 2436.24 146.904C2402.71 173.677 2376.76 197.391 2354.6 221.359C2303.29 276.891 2271.37 335.808 2259.65 396.644C2201.74 387.646 2152.24 387.943 2133.6 387.782C2117.6 387.635 2100.71 387.744 2083.38 388.552C2070.38 330.605 2039.07 274.408 1990.14 221.449C1967.98 197.481 1942.03 173.852 1908.5 146.994C1880.61 124.64 1853.31 103.051 1825.01 83.5027C1806.05 70.4136 1770.75 46.1048 1739.4 54.7742C1713.37 61.9987 1702.84 94.212 1710.42 142.999C1713.45 162.377 1717.5 181.501 1721.37 200.03C1725.17 218.049 1728.7 235.048 1731.32 251.707C1738.9 300.918 1744.21 338.911 1747.91 371.379C1752.46 411.581 1756.17 447.194 1760.3 490.456L1760.97 497.256C1762.79 516.77 1764.57 535.669 1768.44 554.261C1768.64 565.013 1768.99 573.712 1769.56 580.86C1765.24 579.06 1760.51 577.017 1755.58 574.771C1752.04 573.241 1747.83 574.091 1745.13 576.895C1742.44 579.7 1741.85 583.951 1743.53 587.435C1749.18 598.824 1756.76 608.769 1766.03 616.928C1765.1 617.183 1764.18 617.438 1763.42 617.693C1760.13 618.883 1757.43 622.622 1757.43 626.192C1757.43 633.587 1762.66 635.457 1782.12 642.427C1793.56 646.547 1809.78 652.388 1819.85 658.021C1812.57 738.041 1832.42 806.26 1840.48 880.155C1845.2 932.937 1845.96 1061.62 1758.59 1151.03C1563.2 1291.02 1301.77 1559.52 1301.77 1559.52C1010.92 1848.84 840.649 2137.99 728.929 2532.45C597.662 2465.22 482.489 2365.94 397.562 2244.57C361.08 2192.47 330.159 2136.71 299.322 2081.04C245.906 1984.57 191.9 1886.83 164.012 1779.99C156.682 1752.03 142.611 1716.5 113.965 1718.37C104.95 1718.97 96.6936 1723.64 89.8693 1729.67C59.5381 1756.28 57.6843 1802.26 58.1056 1842.8C59.2009 1944.46 60.4646 2046.62 79.2531 2146.49C98.0415 2246.36 135.618 2344.61 201.841 2421.28L182.295 2416.26C185.665 2486.04 226.275 2552.85 286.347 2587.52C311.286 2601.97 344.398 2620.5 338.5 2648.98C329.569 2647.28 320.723 2645.58 311.792 2643.79C350.043 2721.05 429.662 2768.65 509.871 2798.57C576.431 2823.38 646.277 2838.85 716.965 2844.89C718.903 2853.05 720.925 2861.29 723.284 2869.62C780.914 3077.6 992.22 3146.02 1169.57 3203.99C1308.76 3239.43 1472.3 3260.6 1645.18 3251.59C1748.14 3246.23 1827.93 3233.82 1888.25 3219.8C1957.76 3304.11 2027.02 3309.21 2027.02 3309.21C2054.57 3314.06 2075.38 3314.23 2080.1 3314.23L2106.05 3313.8C2142.36 3312.36 2193.67 3305.56 2208.75 3273.6C2215.66 3259.07 2211.36 3246.91 2181.79 3171.61C2152.56 3097.15 2139.92 3066.04 2130.82 3037.91C2121.21 2994.99 2111.86 2939.74 2101.58 2863.5C2100.15 2853.05 2098.89 2843.27 2097.71 2834.01C2094.5 2794.23 2090.63 2742.89 2086.33 2682.21C2087 2681.7 2087.67 2682.62 2087.68 2682.63L2072.18 2312.06C2071.84 2303.47 2072.6 2294.8 2074.54 2286.47C2077.65 2284.77 2080.69 2283.16 2083.8 2281.63C2108.49 2269.3 2133.77 2260.38 2169.91 2228.25C2192.07 2208.53 2288.79 2124.39 2348.53 1941.82C2352.66 1928.56 2380.71 1836 2393.18 1727.89C2394.87 1711.06 2396.38 1694.15 2397.82 1677.15C2402.11 1628.11 2403.46 1578.81 2401.94 1529.51L2400.43 1480.98C2409.78 1404.4 2421.91 1337.51 2433.46 1283.54C2445.67 1226.17 2454.52 1168.12 2460.08 1109.73C2465.47 1053.71 2469.68 1017.59 2475.25 988.183C2501.78 848.367 2536.33 783.261 2527.57 659.594C2527.49 658.566 2527.42 657.551 2527.35 656.549C2537.43 651.329 2552.08 646.056 2562.71 642.252C2582.08 635.282 2587.39 633.413 2587.39 626.018L2586.89 619.558L2581.33 617.518C2580.48 617.263 2579.64 617.009 2578.71 616.754C2587.98 608.594 2595.65 598.65 2601.21 587.261C2602.9 583.776 2602.22 579.526 2599.53 576.721C2596.83 573.917 2592.7 573.067 2589.16 574.681C2584.31 576.894 2579.64 578.909 2575.38 580.689C2576.13 573.014 2576.58 563.536 2576.84 551.54C2580.35 533.797 2582.04 515.761 2583.77 497.167L2584.44 490.282C2588.57 447.02 2592.28 411.407 2596.83 371.205C2601.63 328.793 2608.62 282.555 2613.43 251.532C2615.95 234.788 2619.58 217.789 2623.37 199.77C2627.24 181.327 2631.29 162.288 2634.32 142.909C2641.9 94.0375 2631.37 61.91 2605.34 54.6853ZM1797.78 629.728C1798.05 629.96 1798.33 630.194 1798.6 630.432C1798.3 630.322 1798.01 630.212 1797.71 630.102L1797.78 629.728ZM2547.04 629.927C2546.9 629.978 2546.77 630.029 2546.63 630.079C2546.75 629.968 2546.87 629.857 2546.99 629.747L2547.04 629.927ZM1761.13 339.594C1763.95 358.166 1766.24 376.769 1767.66 395.413C1766.72 386.884 1765.76 378.265 1764.76 369.425C1763.69 359.994 1762.49 350.096 1761.13 339.594Z" fill="#FDD801"/>
</g>
</svg>
