<svg width="2999" height="2608" viewBox="0 0 2999 2608" fill="none" xmlns="http://www.w3.org/2000/svg">
<path d="M2987.2 1309.42C2917.23 1073.31 2648.94 921.533 2407.3 967.064C2165.66 1012.49 1974.77 1237.2 1950.87 1482.28C1941.52 1578.43 1954.84 1675.51 1949.65 1771.97C1946.4 1833.29 1934.09 1896.65 1906.84 1950.94C1828.32 1701.28 1662.96 1476.98 1477.76 1287.31C1250.67 1054.56 988.586 856.953 768.507 617.987C788.136 586.411 805.831 553.204 814.069 517.043C819.764 492.088 820.781 466.317 821.188 440.75C822.103 375.763 817.425 306.803 780.406 253.428C774.609 245.075 767.897 237.334 760.778 230.102C760.778 219.508 760.27 208.202 759.049 195.877C747.049 73.7455 719.895 8.14718 678.299 0.711346C677.689 0.609485 677.079 0.507625 676.469 0.405764C627.348 -6.31705 579.244 71.6064 532.462 152.789C523.309 152.484 514.054 152.28 504.901 152.178C463.712 151.771 422.219 152.789 381.844 160.429C374.725 143.928 364.25 125.694 350.215 105.933C290.009 21.0834 248.922 -13.0399 228.175 4.48015C227.87 4.78574 227.565 4.98946 227.26 5.29504C201.936 29.1304 220.954 124.88 239.26 217.573C239.464 218.49 239.667 219.406 239.769 220.323C191.665 252.919 149.561 295.394 116.203 343.167C54.6747 431.175 20.1984 535.582 0.366839 641.11C-3.39607 719.644 21.7238 801.337 78.5742 855.527C105.626 881.297 139.696 898.716 175.189 910.226C210.581 921.736 247.396 927.644 284.415 928.357L289.703 933.45C297.534 944.96 303.23 962.277 302.213 988.251C300.585 1031.64 251.566 1249.42 266.007 1478.61C276.279 1640.57 318.179 1808.33 430.863 1924.35C483.544 1986.28 517.918 2020.3 540.902 2047.2C560.124 2069.6 571.413 2087.23 578.735 2111.88C584.328 2130.92 587.685 2154.25 590.43 2187.36C594.498 2290.74 585.854 2401.16 585.854 2401.16C584.023 2454.64 579.243 2509.64 555.852 2557.72C551.276 2567.09 545.886 2577.79 549.649 2587.57C554.632 2600.4 571.412 2602.74 585.04 2603.05C639.246 2604.37 704.233 2599.89 731.183 2552.73C739.828 2537.65 742.879 2520.24 745.014 2502.92C817.832 2555.48 885.148 2595.92 977.288 2603.05C1186.18 2619.14 1428.64 2592.35 1637.33 2574.63C1705.78 2568.82 1777.07 2560.17 1834.22 2521.87C1909.58 2471.34 1942.74 2381.71 1951.58 2288.81C2076.17 2303.17 2201.66 2218.42 2257.8 2104.34C2297.77 2023.26 2320.35 1945.13 2320.04 1863.34L2320.15 1863.34C2320.15 1863.34 2320.86 1822.08 2314.25 1792.03C2314.04 1791.12 2313.84 1789.9 2313.74 1788.88C2313.64 1788.06 2313.43 1787.15 2313.33 1786.33C2308.96 1755.47 2315.16 1693.94 2315.98 1686.3C2322.08 1639.96 2335.6 1591.57 2362.45 1551.44C2398.96 1501.93 2437.61 1454.88 2491.81 1473.82C2528.53 1486.66 2554.26 1519.15 2585.58 1542.27C2680.06 1612.15 2819.49 1587.5 2913.06 1516.3C2953.84 1485.23 2990.35 1443.06 2997.06 1392.13C3000.72 1364.32 2995.03 1336.11 2987.09 1309.21L2987.2 1309.42Z" fill="#FDD801"/>
</svg>
