<svg width="2387" height="1543" viewBox="0 0 2387 1543" fill="none" xmlns="http://www.w3.org/2000/svg">
<g clip-path="url(#clip0_1812_41235)">
<mask id="mask0_1812_41235" style="mask-type:alpha" maskUnits="userSpaceOnUse" x="-4020" y="-4072" width="9738" height="9741">
<path d="M243.656 497.891H387.93V497.891C387.93 577.571 323.336 642.164 243.656 642.164V642.164V497.891Z" fill="#242632"/>
<path d="M243.656 -111.414H387.93V-111.414C387.93 -31.734 323.336 32.8594 243.656 32.8594V32.8594V-111.414Z" fill="#242632"/>
<path d="M243.656 192.305H387.93V192.305C387.93 271.985 323.336 336.578 243.656 336.578V336.578V192.305Z" fill="#242632"/>
<path d="M-60.8906 497.891H83.3828V497.891C83.3828 577.571 18.7894 642.164 -60.8906 642.164V642.164V497.891Z" fill="#242632"/>
<path d="M-60.8906 -111.414H83.3828V-111.414C83.3828 -31.734 18.7894 32.8594 -60.8906 32.8594V32.8594V-111.414Z" fill="#242632"/>
<path d="M-60.8906 192.305H83.3828V192.305C83.3828 271.985 18.7894 336.578 -60.8906 336.578V336.578V192.305Z" fill="#242632"/>
<path d="M548.203 497.891H692.477V497.891C692.477 577.571 627.883 642.164 548.203 642.164V642.164V497.891Z" fill="#242632"/>
<path d="M548.203 -111.414H692.477V-111.414C692.477 -31.734 627.883 32.8594 548.203 32.8594V32.8594V-111.414Z" fill="#242632"/>
<path d="M548.203 192.305H692.477V192.305C692.477 271.985 627.883 336.578 548.203 336.578V336.578V192.305Z" fill="#242632"/>
<path d="M395.93 497.891H540.203V497.891C540.203 577.571 475.61 642.164 395.93 642.164V642.164V497.891Z" fill="#242632"/>
<path d="M395.93 -111.414H540.203V-111.414C540.203 -31.734 475.61 32.8594 395.93 32.8594V32.8594V-111.414Z" fill="#242632"/>
<path d="M395.93 192.305H540.203V192.305C540.203 271.985 475.61 336.578 395.93 336.578V336.578V192.305Z" fill="#242632"/>
<path d="M91.3828 497.891H235.656V497.891C235.656 577.571 171.063 642.164 91.3828 642.164V642.164V497.891Z" fill="#242632"/>
<path d="M91.3828 -111.414H235.656V-111.414C235.656 -31.734 171.063 32.8594 91.3828 32.8594V32.8594V-111.414Z" fill="#242632"/>
<path d="M91.3828 192.305H235.656V192.305C235.656 271.985 171.063 336.578 91.3828 336.578V336.578V192.305Z" fill="#242632"/>
<path d="M700.477 497.891H844.75V497.891C844.75 577.571 780.157 642.164 700.477 642.164V642.164V497.891Z" fill="#242632"/>
<path d="M700.477 -111.414H844.75V-111.414C844.75 -31.734 780.157 32.8594 700.477 32.8594V32.8594V-111.414Z" fill="#242632"/>
<path d="M700.477 192.305H844.75V192.305C844.75 271.985 780.157 336.578 700.477 336.578V336.578V192.305Z" fill="#242632"/>
<path d="M387.93 649.867H243.656V649.867C243.656 729.547 308.25 794.141 387.93 794.141V794.141V649.867Z" fill="#242632"/>
<path d="M387.93 40.5625H243.656V40.5625C243.656 120.243 308.25 184.836 387.93 184.836V184.836V40.5625Z" fill="#242632"/>
<path d="M387.93 344.281H243.656V344.281C243.656 423.961 308.25 488.555 387.93 488.555V488.555V344.281Z" fill="#242632"/>
<path d="M83.3828 649.867H-60.8906V649.867C-60.8906 729.547 3.7028 794.141 83.3828 794.141V794.141V649.867Z" fill="#242632"/>
<path d="M83.3828 40.5625H-60.8906V40.5625C-60.8906 120.243 3.7028 184.836 83.3828 184.836V184.836V40.5625Z" fill="#242632"/>
<path d="M83.3828 344.281H-60.8906V344.281C-60.8906 423.961 3.7028 488.555 83.3828 488.555V488.555V344.281Z" fill="#242632"/>
<path d="M692.477 649.867H548.203V649.867C548.203 729.547 612.797 794.141 692.477 794.141V794.141V649.867Z" fill="#242632"/>
<path d="M692.477 40.5625H548.203V40.5625C548.203 120.243 612.797 184.836 692.477 184.836V184.836V40.5625Z" fill="#242632"/>
<path d="M692.477 344.281H548.203V344.281C548.203 423.961 612.797 488.555 692.477 488.555V488.555V344.281Z" fill="#242632"/>
<path d="M540.203 649.867H395.93V649.867C395.93 729.547 460.523 794.141 540.203 794.141V794.141V649.867Z" fill="#242632"/>
<path d="M540.203 40.5625H395.93V40.5625C395.93 120.243 460.523 184.836 540.203 184.836V184.836V40.5625Z" fill="#242632"/>
<path d="M540.203 344.281H395.93V344.281C395.93 423.961 460.523 488.555 540.203 488.555V488.555V344.281Z" fill="#242632"/>
<path d="M235.656 649.867H91.3828V649.867C91.3828 729.547 155.976 794.141 235.656 794.141V794.141V649.867Z" fill="#242632"/>
<path d="M235.656 40.5625H91.3828V40.5625C91.3828 120.243 155.976 184.836 235.656 184.836V184.836V40.5625Z" fill="#242632"/>
<path d="M235.656 344.281H91.3828V344.281C91.3828 423.961 155.976 488.555 235.656 488.555V488.555V344.281Z" fill="#242632"/>
<path d="M844.75 649.867H700.477V649.867C700.477 729.547 765.07 794.141 844.75 794.141V794.141V649.867Z" fill="#242632"/>
<path d="M844.75 40.5625H700.477V40.5625C700.477 120.243 765.07 184.836 844.75 184.836V184.836V40.5625Z" fill="#242632"/>
<path d="M844.75 344.281H700.477V344.281C700.477 423.961 765.07 488.555 844.75 488.555V488.555V344.281Z" fill="#242632"/>
<path d="M243.656 1107.73H387.93V1107.73C387.93 1187.41 323.336 1252 243.656 1252V1252V1107.73Z" fill="#242632"/>
<path d="M243.656 1411.45H387.93V1411.45C387.93 1491.13 323.336 1555.72 243.656 1555.72V1555.72V1411.45Z" fill="#242632"/>
<path d="M243.656 802.141H387.93V802.141C387.93 881.821 323.336 946.414 243.656 946.414V946.414V802.141Z" fill="#242632"/>
<path d="M-60.8906 1107.73H83.3828V1107.73C83.3828 1187.41 18.7894 1252 -60.8906 1252V1252V1107.73Z" fill="#242632"/>
<path d="M-60.8906 1411.45H83.3828V1411.45C83.3828 1491.13 18.7894 1555.72 -60.8906 1555.72V1555.72V1411.45Z" fill="#242632"/>
<path d="M-60.8906 802.141H83.3828V802.141C83.3828 881.821 18.7894 946.414 -60.8906 946.414V946.414V802.141Z" fill="#242632"/>
<path d="M548.203 1107.73H692.477V1107.73C692.477 1187.41 627.883 1252 548.203 1252V1252V1107.73Z" fill="#242632"/>
<path d="M548.203 1411.45H692.477V1411.45C692.477 1491.13 627.883 1555.72 548.203 1555.72V1555.72V1411.45Z" fill="#242632"/>
<path d="M548.203 802.141H692.477V802.141C692.477 881.821 627.883 946.414 548.203 946.414V946.414V802.141Z" fill="#242632"/>
<path d="M395.93 1107.73H540.203V1107.73C540.203 1187.41 475.61 1252 395.93 1252V1252V1107.73Z" fill="#242632"/>
<path d="M395.93 1411.45H540.203V1411.45C540.203 1491.13 475.61 1555.72 395.93 1555.72V1555.72V1411.45Z" fill="#242632"/>
<path d="M395.93 802.141H540.203V802.141C540.203 881.821 475.61 946.414 395.93 946.414V946.414V802.141Z" fill="#242632"/>
<path d="M91.3828 1107.73H235.656V1107.73C235.656 1187.41 171.063 1252 91.3828 1252V1252V1107.73Z" fill="#242632"/>
<path d="M91.3828 1411.45H235.656V1411.45C235.656 1491.13 171.063 1555.72 91.3828 1555.72V1555.72V1411.45Z" fill="#242632"/>
<path d="M91.3828 802.141H235.656V802.141C235.656 881.821 171.063 946.414 91.3828 946.414V946.414V802.141Z" fill="#242632"/>
<path d="M700.477 1107.73H844.75V1107.73C844.75 1187.41 780.157 1252 700.477 1252V1252V1107.73Z" fill="#242632"/>
<path d="M700.477 1411.45H844.75V1411.45C844.75 1491.13 780.157 1555.72 700.477 1555.72V1555.72V1411.45Z" fill="#242632"/>
<path d="M700.477 802.141H844.75V802.141C844.75 881.821 780.157 946.414 700.477 946.414V946.414V802.141Z" fill="#242632"/>
<path d="M387.93 1259.7H243.656V1259.7C243.656 1339.38 308.25 1403.98 387.93 1403.98V1403.98V1259.7Z" fill="#242632"/>
<path d="M387.93 954.117H243.656V954.117C243.656 1033.8 308.25 1098.39 387.93 1098.39V1098.39V954.117Z" fill="#242632"/>
<path d="M83.3828 1259.7H-60.8906V1259.7C-60.8906 1339.38 3.7028 1403.98 83.3828 1403.98V1403.98V1259.7Z" fill="#242632"/>
<path d="M83.3828 954.117H-60.8906V954.117C-60.8906 1033.8 3.7028 1098.39 83.3828 1098.39V1098.39V954.117Z" fill="#242632"/>
<path d="M692.477 1259.7H548.203V1259.7C548.203 1339.38 612.797 1403.98 692.477 1403.98V1403.98V1259.7Z" fill="#242632"/>
<path d="M692.477 954.117H548.203V954.117C548.203 1033.8 612.797 1098.39 692.477 1098.39V1098.39V954.117Z" fill="#242632"/>
<path d="M540.203 1259.7H395.93V1259.7C395.93 1339.38 460.523 1403.98 540.203 1403.98V1403.98V1259.7Z" fill="#242632"/>
<path d="M540.203 954.117H395.93V954.117C395.93 1033.8 460.523 1098.39 540.203 1098.39V1098.39V954.117Z" fill="#242632"/>
<path d="M235.656 1259.7H91.3828V1259.7C91.3828 1339.38 155.976 1403.98 235.656 1403.98V1403.98V1259.7Z" fill="#242632"/>
<path d="M235.656 954.117H91.3828V954.117C91.3828 1033.8 155.976 1098.39 235.656 1098.39V1098.39V954.117Z" fill="#242632"/>
<path d="M844.75 1259.7H700.477V1259.7C700.477 1339.38 765.07 1403.98 844.75 1403.98V1403.98V1259.7Z" fill="#242632"/>
<path d="M844.75 954.117H700.477V954.117C700.477 1033.8 765.07 1098.39 844.75 1098.39V1098.39V954.117Z" fill="#242632"/>
<path d="M852.75 497.891H997.023V497.891C997.023 577.571 932.43 642.164 852.75 642.164V642.164V497.891Z" fill="#242632"/>
<path d="M852.75 -111.414H997.023V-111.414C997.023 -31.734 932.43 32.8594 852.75 32.8594V32.8594V-111.414Z" fill="#242632"/>
<path d="M852.75 192.305H997.023V192.305C997.023 271.985 932.43 336.578 852.75 336.578V336.578V192.305Z" fill="#242632"/>
<path d="M1461.84 497.891H1606.12V497.891C1606.12 577.571 1541.52 642.164 1461.84 642.164V642.164V497.891Z" fill="#242632"/>
<path d="M1461.84 -111.414H1606.12V-111.414C1606.12 -31.734 1541.52 32.8594 1461.84 32.8594V32.8594V-111.414Z" fill="#242632"/>
<path d="M1461.84 192.305H1606.12V192.305C1606.12 271.985 1541.52 336.578 1461.84 336.578V336.578V192.305Z" fill="#242632"/>
<path d="M1157.3 497.891H1301.57V497.891C1301.57 577.571 1236.98 642.164 1157.3 642.164V642.164V497.891Z" fill="#242632"/>
<path d="M1157.3 -111.414H1301.57V-111.414C1301.57 -31.734 1236.98 32.8594 1157.3 32.8594V32.8594V-111.414Z" fill="#242632"/>
<path d="M1157.3 192.305H1301.57V192.305C1301.57 271.985 1236.98 336.578 1157.3 336.578V336.578V192.305Z" fill="#242632"/>
<path d="M1766.39 497.891H1910.66V497.891C1910.66 577.571 1846.07 642.164 1766.39 642.164V642.164V497.891Z" fill="#242632"/>
<path d="M1766.39 -111.414H1910.66V-111.414C1910.66 -31.734 1846.07 32.8594 1766.39 32.8594V32.8594V-111.414Z" fill="#242632"/>
<path d="M1766.39 192.305H1910.66V192.305C1910.66 271.985 1846.07 336.578 1766.39 336.578V336.578V192.305Z" fill="#242632"/>
<path d="M1005.02 497.891H1149.3V497.891C1149.3 577.571 1084.7 642.164 1005.02 642.164V642.164V497.891Z" fill="#242632"/>
<path d="M1005.02 -111.414H1149.3V-111.414C1149.3 -31.734 1084.7 32.8594 1005.02 32.8594V32.8594V-111.414Z" fill="#242632"/>
<path d="M1005.02 192.305H1149.3V192.305C1149.3 271.985 1084.7 336.578 1005.02 336.578V336.578V192.305Z" fill="#242632"/>
<path d="M1614.12 497.891H1758.39V497.891C1758.39 577.571 1693.8 642.164 1614.12 642.164V642.164V497.891Z" fill="#242632"/>
<path d="M1614.12 -111.414H1758.39V-111.414C1758.39 -31.734 1693.8 32.8594 1614.12 32.8594V32.8594V-111.414Z" fill="#242632"/>
<path d="M1614.12 192.305H1758.39V192.305C1758.39 271.985 1693.8 336.578 1614.12 336.578V336.578V192.305Z" fill="#242632"/>
<path d="M1309.57 497.891H1453.84V497.891C1453.84 577.571 1389.25 642.164 1309.57 642.164V642.164V497.891Z" fill="#242632"/>
<path d="M1309.57 -111.414H1453.84V-111.414C1453.84 -31.734 1389.25 32.8594 1309.57 32.8594V32.8594V-111.414Z" fill="#242632"/>
<path d="M1309.57 192.305H1453.84V192.305C1453.84 271.985 1389.25 336.578 1309.57 336.578V336.578V192.305Z" fill="#242632"/>
<path d="M1918.66 497.891H2062.94V497.891C2062.94 577.571 1998.34 642.164 1918.66 642.164V642.164V497.891Z" fill="#242632"/>
<path d="M1918.66 -111.414H2062.94V-111.414C2062.94 -31.734 1998.34 32.8594 1918.66 32.8594V32.8594V-111.414Z" fill="#242632"/>
<path d="M1918.66 192.305H2062.94V192.305C2062.94 271.985 1998.34 336.578 1918.66 336.578V336.578V192.305Z" fill="#242632"/>
<path d="M997.023 649.867H852.75V649.867C852.75 729.547 917.343 794.141 997.023 794.141V794.141V649.867Z" fill="#242632"/>
<path d="M997.023 40.5625H852.75V40.5625C852.75 120.243 917.343 184.836 997.023 184.836V184.836V40.5625Z" fill="#242632"/>
<path d="M997.023 344.281H852.75V344.281C852.75 423.961 917.343 488.555 997.023 488.555V488.555V344.281Z" fill="#242632"/>
<path d="M1606.12 649.867H1461.84V649.867C1461.84 729.547 1526.44 794.141 1606.12 794.141V794.141V649.867Z" fill="#242632"/>
<path d="M1606.12 40.5625H1461.84V40.5625C1461.84 120.243 1526.44 184.836 1606.12 184.836V184.836V40.5625Z" fill="#242632"/>
<path d="M1606.12 344.281H1461.84V344.281C1461.84 423.961 1526.44 488.555 1606.12 488.555V488.555V344.281Z" fill="#242632"/>
<path d="M1301.57 649.867H1157.3V649.867C1157.3 729.547 1221.89 794.141 1301.57 794.141V794.141V649.867Z" fill="#242632"/>
<path d="M1301.57 40.5625H1157.3V40.5625C1157.3 120.243 1221.89 184.836 1301.57 184.836V184.836V40.5625Z" fill="#242632"/>
<path d="M1301.57 344.281H1157.3V344.281C1157.3 423.961 1221.89 488.555 1301.57 488.555V488.555V344.281Z" fill="#242632"/>
<path d="M1910.66 649.867H1766.39V649.867C1766.39 729.547 1830.98 794.141 1910.66 794.141V794.141V649.867Z" fill="#242632"/>
<path d="M1910.66 40.5625H1766.39V40.5625C1766.39 120.243 1830.98 184.836 1910.66 184.836V184.836V40.5625Z" fill="#242632"/>
<path d="M1910.66 344.281H1766.39V344.281C1766.39 423.961 1830.98 488.555 1910.66 488.555V488.555V344.281Z" fill="#242632"/>
<path d="M1149.3 649.867H1005.02V649.867C1005.02 729.547 1069.62 794.141 1149.3 794.141V794.141V649.867Z" fill="#242632"/>
<path d="M1149.3 40.5625H1005.02V40.5625C1005.02 120.243 1069.62 184.836 1149.3 184.836V184.836V40.5625Z" fill="#242632"/>
<path d="M1149.3 344.281H1005.02V344.281C1005.02 423.961 1069.62 488.555 1149.3 488.555V488.555V344.281Z" fill="#242632"/>
<path d="M1758.39 649.867H1614.12V649.867C1614.12 729.547 1678.71 794.141 1758.39 794.141V794.141V649.867Z" fill="#242632"/>
<path d="M1758.39 40.5625H1614.12V40.5625C1614.12 120.243 1678.71 184.836 1758.39 184.836V184.836V40.5625Z" fill="#242632"/>
<path d="M1758.39 344.281H1614.12V344.281C1614.12 423.961 1678.71 488.555 1758.39 488.555V488.555V344.281Z" fill="#242632"/>
<path d="M1453.84 649.867H1309.57V649.867C1309.57 729.547 1374.16 794.141 1453.84 794.141V794.141V649.867Z" fill="#242632"/>
<path d="M1453.84 40.5625H1309.57V40.5625C1309.57 120.243 1374.16 184.836 1453.84 184.836V184.836V40.5625Z" fill="#242632"/>
<path d="M1453.84 344.281H1309.57V344.281C1309.57 423.961 1374.16 488.555 1453.84 488.555V488.555V344.281Z" fill="#242632"/>
<path d="M2062.94 649.867H1918.66V649.867C1918.66 729.547 1983.26 794.141 2062.94 794.141V794.141V649.867Z" fill="#242632"/>
<path d="M2062.94 40.5625H1918.66V40.5625C1918.66 120.243 1983.26 184.836 2062.94 184.836V184.836V40.5625Z" fill="#242632"/>
<path d="M2062.94 344.281H1918.66V344.281C1918.66 423.961 1983.26 488.555 2062.94 488.555V488.555V344.281Z" fill="#242632"/>
<path d="M2070.94 497.891H2215.21V497.891C2215.21 577.571 2150.62 642.164 2070.94 642.164V642.164V497.891Z" fill="#242632"/>
<path d="M2070.94 -111.414H2215.21V-111.414C2215.21 -31.734 2150.62 32.8594 2070.94 32.8594V32.8594V-111.414Z" fill="#242632"/>
<path d="M2070.94 192.305H2215.21V192.305C2215.21 271.985 2150.62 336.578 2070.94 336.578V336.578V192.305Z" fill="#242632"/>
<path d="M2375.48 497.891H2519.76V497.891C2519.76 577.571 2455.16 642.164 2375.48 642.164V642.164V497.891Z" fill="#242632"/>
<path d="M2375.48 -111.414H2519.76V-111.414C2519.76 -31.734 2455.16 32.8594 2375.48 32.8594V32.8594V-111.414Z" fill="#242632"/>
<path d="M2375.48 192.305H2519.76V192.305C2519.76 271.985 2455.16 336.578 2375.48 336.578V336.578V192.305Z" fill="#242632"/>
<path d="M2223.21 497.891H2367.48V497.891C2367.48 577.571 2302.89 642.164 2223.21 642.164V642.164V497.891Z" fill="#242632"/>
<path d="M2223.21 -111.414H2367.48V-111.414C2367.48 -31.734 2302.89 32.8594 2223.21 32.8594V32.8594V-111.414Z" fill="#242632"/>
<path d="M2223.21 192.305H2367.48V192.305C2367.48 271.985 2302.89 336.578 2223.21 336.578V336.578V192.305Z" fill="#242632"/>
<path d="M2215.21 649.867H2070.94V649.867C2070.94 729.547 2135.53 794.141 2215.21 794.141V794.141V649.867Z" fill="#242632"/>
<path d="M2215.21 40.5625H2070.94V40.5625C2070.94 120.243 2135.53 184.836 2215.21 184.836V184.836V40.5625Z" fill="#242632"/>
<path d="M2215.21 344.281H2070.94V344.281C2070.94 423.961 2135.53 488.555 2215.21 488.555V488.555V344.281Z" fill="#242632"/>
<path d="M2519.76 649.867H2375.48V649.867C2375.48 729.547 2440.08 794.141 2519.76 794.141V794.141V649.867Z" fill="#242632"/>
<path d="M2519.76 40.5625H2375.48V40.5625C2375.48 120.243 2440.08 184.836 2519.76 184.836V184.836V40.5625Z" fill="#242632"/>
<path d="M2519.76 344.281H2375.48V344.281C2375.48 423.961 2440.08 488.555 2519.76 488.555V488.555V344.281Z" fill="#242632"/>
<path d="M2367.48 649.867H2223.21V649.867C2223.21 729.547 2287.8 794.141 2367.48 794.141V794.141V649.867Z" fill="#242632"/>
<path d="M2367.48 40.5625H2223.21V40.5625C2223.21 120.243 2287.8 184.836 2367.48 184.836V184.836V40.5625Z" fill="#242632"/>
<path d="M2367.48 344.281H2223.21V344.281C2223.21 423.961 2287.8 488.555 2367.48 488.555V488.555V344.281Z" fill="#242632"/>
<path d="M852.75 1107.73H997.023V1107.73C997.023 1187.41 932.43 1252 852.75 1252V1252V1107.73Z" fill="#242632"/>
<path d="M852.75 1411.45H997.023V1411.45C997.023 1491.13 932.43 1555.72 852.75 1555.72V1555.72V1411.45Z" fill="#242632"/>
<path d="M852.75 802.141H997.023V802.141C997.023 881.821 932.43 946.414 852.75 946.414V946.414V802.141Z" fill="#242632"/>
<path d="M1461.84 1107.73H1606.12V1107.73C1606.12 1187.41 1541.52 1252 1461.84 1252V1252V1107.73Z" fill="#242632"/>
<path d="M1461.84 1411.45H1606.12V1411.45C1606.12 1491.13 1541.52 1555.72 1461.84 1555.72V1555.72V1411.45Z" fill="#242632"/>
<path d="M1461.84 802.141H1606.12V802.141C1606.12 881.821 1541.52 946.414 1461.84 946.414V946.414V802.141Z" fill="#242632"/>
<path d="M1157.3 1107.73H1301.57V1107.73C1301.57 1187.41 1236.98 1252 1157.3 1252V1252V1107.73Z" fill="#242632"/>
<path d="M1157.3 1411.45H1301.57V1411.45C1301.57 1491.13 1236.98 1555.72 1157.3 1555.72V1555.72V1411.45Z" fill="#242632"/>
<path d="M1157.3 802.141H1301.57V802.141C1301.57 881.821 1236.98 946.414 1157.3 946.414V946.414V802.141Z" fill="#242632"/>
<path d="M1766.39 1107.73H1910.66V1107.73C1910.66 1187.41 1846.07 1252 1766.39 1252V1252V1107.73Z" fill="#242632"/>
<path d="M1766.39 1411.45H1910.66V1411.45C1910.66 1491.13 1846.07 1555.72 1766.39 1555.72V1555.72V1411.45Z" fill="#242632"/>
<path d="M1766.39 802.141H1910.66V802.141C1910.66 881.821 1846.07 946.414 1766.39 946.414V946.414V802.141Z" fill="#242632"/>
<path d="M1005.02 1107.73H1149.3V1107.73C1149.3 1187.41 1084.7 1252 1005.02 1252V1252V1107.73Z" fill="#242632"/>
<path d="M1005.02 1411.45H1149.3V1411.45C1149.3 1491.13 1084.7 1555.72 1005.02 1555.72V1555.72V1411.45Z" fill="#242632"/>
<path d="M1005.02 802.141H1149.3V802.141C1149.3 881.821 1084.7 946.414 1005.02 946.414V946.414V802.141Z" fill="#242632"/>
<path d="M1614.12 1107.73H1758.39V1107.73C1758.39 1187.41 1693.8 1252 1614.12 1252V1252V1107.73Z" fill="#242632"/>
<path d="M1614.12 1411.45H1758.39V1411.45C1758.39 1491.13 1693.8 1555.72 1614.12 1555.72V1555.72V1411.45Z" fill="#242632"/>
<path d="M1614.12 802.141H1758.39V802.141C1758.39 881.821 1693.8 946.414 1614.12 946.414V946.414V802.141Z" fill="#242632"/>
<path d="M1309.57 1107.73H1453.84V1107.73C1453.84 1187.41 1389.25 1252 1309.57 1252V1252V1107.73Z" fill="#242632"/>
<path d="M1309.57 1411.45H1453.84V1411.45C1453.84 1491.13 1389.25 1555.72 1309.57 1555.72V1555.72V1411.45Z" fill="#242632"/>
<path d="M1309.57 802.141H1453.84V802.141C1453.84 881.821 1389.25 946.414 1309.57 946.414V946.414V802.141Z" fill="#242632"/>
<path d="M1918.66 1107.73H2062.94V1107.73C2062.94 1187.41 1998.34 1252 1918.66 1252V1252V1107.73Z" fill="#242632"/>
<path d="M1918.66 1411.45H2062.94V1411.45C2062.94 1491.13 1998.34 1555.72 1918.66 1555.72V1555.72V1411.45Z" fill="#242632"/>
<path d="M1918.66 802.141H2062.94V802.141C2062.94 881.821 1998.34 946.414 1918.66 946.414V946.414V802.141Z" fill="#242632"/>
<path d="M997.023 1259.7H852.75V1259.7C852.75 1339.38 917.343 1403.98 997.023 1403.98V1403.98V1259.7Z" fill="#242632"/>
<path d="M997.023 954.117H852.75V954.117C852.75 1033.8 917.343 1098.39 997.023 1098.39V1098.39V954.117Z" fill="#242632"/>
<path d="M1606.12 1259.7H1461.84V1259.7C1461.84 1339.38 1526.44 1403.98 1606.12 1403.98V1403.98V1259.7Z" fill="#242632"/>
<path d="M1606.12 954.117H1461.84V954.117C1461.84 1033.8 1526.44 1098.39 1606.12 1098.39V1098.39V954.117Z" fill="#242632"/>
<path d="M1301.57 1259.7H1157.3V1259.7C1157.3 1339.38 1221.89 1403.98 1301.57 1403.98V1403.98V1259.7Z" fill="#242632"/>
<path d="M1301.57 954.117H1157.3V954.117C1157.3 1033.8 1221.89 1098.39 1301.57 1098.39V1098.39V954.117Z" fill="#242632"/>
<path d="M1910.66 1259.7H1766.39V1259.7C1766.39 1339.38 1830.98 1403.98 1910.66 1403.98V1403.98V1259.7Z" fill="#242632"/>
<path d="M1910.66 954.117H1766.39V954.117C1766.39 1033.8 1830.98 1098.39 1910.66 1098.39V1098.39V954.117Z" fill="#242632"/>
<path d="M1149.3 1259.7H1005.02V1259.7C1005.02 1339.38 1069.62 1403.98 1149.3 1403.98V1403.98V1259.7Z" fill="#242632"/>
<path d="M1149.3 954.117H1005.02V954.117C1005.02 1033.8 1069.62 1098.39 1149.3 1098.39V1098.39V954.117Z" fill="#242632"/>
<path d="M1758.39 1259.7H1614.12V1259.7C1614.12 1339.38 1678.71 1403.98 1758.39 1403.98V1403.98V1259.7Z" fill="#242632"/>
<path d="M1758.39 954.117H1614.12V954.117C1614.12 1033.8 1678.71 1098.39 1758.39 1098.39V1098.39V954.117Z" fill="#242632"/>
<path d="M1453.84 1259.7H1309.57V1259.7C1309.57 1339.38 1374.16 1403.98 1453.84 1403.98V1403.98V1259.7Z" fill="#242632"/>
<path d="M1453.84 954.117H1309.57V954.117C1309.57 1033.8 1374.16 1098.39 1453.84 1098.39V1098.39V954.117Z" fill="#242632"/>
<path d="M2062.94 1259.7H1918.66V1259.7C1918.66 1339.38 1983.26 1403.98 2062.94 1403.98V1403.98V1259.7Z" fill="#242632"/>
<path d="M2062.94 954.117H1918.66V954.117C1918.66 1033.8 1983.26 1098.39 2062.94 1098.39V1098.39V954.117Z" fill="#242632"/>
<path d="M2070.94 1107.73H2215.21V1107.73C2215.21 1187.41 2150.62 1252 2070.94 1252V1252V1107.73Z" fill="#242632"/>
<path d="M2070.94 1411.45H2215.21V1411.45C2215.21 1491.13 2150.62 1555.72 2070.94 1555.72V1555.72V1411.45Z" fill="#242632"/>
<path d="M2070.94 802.141H2215.21V802.141C2215.21 881.821 2150.62 946.414 2070.94 946.414V946.414V802.141Z" fill="#242632"/>
<path d="M2375.48 1107.73H2519.76V1107.73C2519.76 1187.41 2455.16 1252 2375.48 1252V1252V1107.73Z" fill="#242632"/>
<path d="M2375.48 1411.45H2519.76V1411.45C2519.76 1491.13 2455.16 1555.72 2375.48 1555.72V1555.72V1411.45Z" fill="#242632"/>
<path d="M2375.48 802.141H2519.76V802.141C2519.76 881.821 2455.16 946.414 2375.48 946.414V946.414V802.141Z" fill="#242632"/>
<path d="M2223.21 1107.73H2367.48V1107.73C2367.48 1187.41 2302.89 1252 2223.21 1252V1252V1107.73Z" fill="#242632"/>
<path d="M2223.21 1411.45H2367.48V1411.45C2367.48 1491.13 2302.89 1555.72 2223.21 1555.72V1555.72V1411.45Z" fill="#242632"/>
<path d="M2223.21 802.141H2367.48V802.141C2367.48 881.821 2302.89 946.414 2223.21 946.414V946.414V802.141Z" fill="#242632"/>
<path d="M2215.21 1259.7H2070.94V1259.7C2070.94 1339.38 2135.53 1403.98 2215.21 1403.98V1403.98V1259.7Z" fill="#242632"/>
<path d="M2215.21 954.117H2070.94V954.117C2070.94 1033.8 2135.53 1098.39 2215.21 1098.39V1098.39V954.117Z" fill="#242632"/>
<path d="M2519.76 1259.7H2375.48V1259.7C2375.48 1339.38 2440.08 1403.98 2519.76 1403.98V1403.98V1259.7Z" fill="#242632"/>
<path d="M2519.76 954.117H2375.48V954.117C2375.48 1033.8 2440.08 1098.39 2519.76 1098.39V1098.39V954.117Z" fill="#242632"/>
<path d="M2367.48 1259.7H2223.21V1259.7C2223.21 1339.38 2287.8 1403.98 2367.48 1403.98V1403.98V1259.7Z" fill="#242632"/>
<path d="M2367.48 954.117H2223.21V954.117C2223.21 1033.8 2287.8 1098.39 2367.48 1098.39V1098.39V954.117Z" fill="#242632"/>
</mask>
<g mask="url(#mask0_1812_41235)">
<path d="M153.562 50.6825C153.562 50.6825 121.761 34.9095 90.3149 19.0014L90.363 18.9606C67.8803 7.57245 14.2484 -0.353694 1.01981 0.28647C5.04201 5.84727 17.6376 17.0308 31.4097 31.3294C40.7636 41.0651 66.2536 66.6843 77.8651 78.205C118.843 118.877 129.311 146.407 129.311 146.407C129.311 146.407 229.81 327.861 238.881 342.832C254.237 368.152 248.946 507.081 248.946 507.081C259.226 526.62 371.805 727.891 439.712 809.994L683.769 976.719C758.192 1025.74 833.863 1108.67 896.917 1172.17L929.492 1204.98C928.319 1185.72 926.035 1166.54 922.671 1147.59C922.671 1147.59 1031.05 1377.07 1042.42 1399.97C1054.18 1420.58 1072.54 1436.62 1094.56 1445.5L1097.97 1446.89C1088.75 1389.44 1080.36 1346.51 1070.58 1304.91L1054.06 1234.68L1064.7 1261.21L1136.41 1476.55C1142.54 1495.25 1178.19 1534.42 1196.24 1542.28C1187.98 1483.32 1178.22 1448.93 1162.23 1384.38L1145.15 1322.47L1118.78 1235.75C1131.32 1250.68 1143.92 1261.45 1158.53 1270.26C1180.4 1283.43 1201.15 1289.09 1215.48 1291.71C1205.58 1283.32 1190.9 1269.87 1175.62 1251.28C1153.76 1224.7 1140.98 1200.21 1113.29 1137.6C1106.2 1121.55 1098.4 1103.61 1090.04 1083.95C1110.86 1095.94 1134.16 1103.35 1158.39 1105.46C1149.2 1097.45 1136.01 1085.12 1121.89 1068.58C1096.72 1039.08 954.408 879.811 893.759 792.921L982.158 807.247C993.895 801.33 988.894 769.471 1005.33 752.648C1029.71 777.713 1044.91 789.784 1073.72 810.434C1118.08 842.227 1159.4 867.123 1208.52 876.111L1227.7 879.622L1227.49 879.022L1229.61 879.407L1168.76 784.704L1241.12 848.463C1290.12 899.642 1274.8 853.92 1338.5 884.966L1469.1 942.976L1338.3 722.015L1339.51 721.04L1342.6 718.426L1476.51 864.444C1476.51 864.444 1602.08 958.697 1637.37 970.217L1775.89 1008.59L1775.53 1008.16L1777.8 1008.8L1662.17 877.645L1567.87 720.828C1702.04 870.796 1922.43 1088.51 2009.14 1129.09C2067.8 1156.54 2102.01 1187.46 2137.55 1197.42C2137.48 1197.28 2137.39 1197.14 2137.3 1197L2137.28 1196.96C2137.99 1197.18 2138.73 1197.41 2139.46 1197.62C2129.05 1180.81 2112.08 1158.24 2092.65 1130.1C2034.15 1045.36 2001.2 971.502 1960.81 926.606C1887.76 845.386 1839.1 791.277 1799.73 748.826C1889.45 818.233 2028.62 925.5 2162.47 1017.84L2332.89 1118.68C2332.64 1118.29 2332.36 1117.78 2332.03 1117.23L2334.8 1118.88C2324.55 1102.49 2246.89 948.537 2221.71 919.538C2148.01 834.619 2046.12 775.47 2024.09 758.562C1943.27 696.539 1884.79 653.286 1837.98 619.766C1874.37 639.817 1903.24 654.765 1922.52 664.589C2007.03 707.617 2080.19 740.027 2134.51 762.77C2134.51 762.77 2190.73 790.912 2232.75 805.482C2257.06 813.914 2384.93 858.941 2384.93 858.941L2384.26 858.243C2385.93 858.815 2386.84 859.144 2386.84 859.144L2260.33 726.914C2233.55 706.476 2178.5 673.366 2148.21 658.659L2005.95 585.361L1852.22 504.705C1924.72 529.875 2080.61 580.743 2115.46 595.094C2131.9 601.86 2185.81 615.949 2208.2 618.038C2214.31 618.737 2218.52 618.697 2219.69 617.598L2167.41 570.66C2146.43 555.108 2124.07 541.43 2100.45 530.261C2092.59 526.549 2090.04 524.098 2063.9 513.274L1896.96 429.84L1679.74 307.609L1749.83 333.133C1774.54 342.136 1800.06 348.771 1826.02 352.962L1945.73 372.292L1945.5 372.153L1947.64 372.494L1844.93 309.813C1789.11 275.757 1614.82 223.923 1549.75 217.323L1328.27 172.824C1328.27 172.824 1029.57 4.42404 1028.4 4.67091C1019.2 6.55557 855.033 135.985 711.559 204.576C636.546 240.461 600.956 253.012 555.84 268.585C503.544 286.628 488.267 289.997 488.267 289.997C488.267 289.997 387.364 145.975 379.422 138.686C273.401 41.2523 244.978 45.522 224.583 53.532C208.774 59.7252 176.927 60.605 176.927 60.605L153.562 50.6825Z" fill="#F03016"/>
</g>
</g>
<defs>
<clipPath id="clip0_1812_41235">
<rect width="2387" height="1543" fill="white"/>
</clipPath>
</defs>
</svg>
